<svg xmlns="http://www.w3.org/2000/svg" width="650" height="650" viewBox="0 0 650 650">
  <defs>
    <style>
      .cls-1 {
        stroke: red;
        stroke-width: 0;
        fill-rule: evenodd;
      }
    </style>
  </defs>
  <path id="helicopter_1" data-name="helicopter 1" class="cls-1" d="M498.161,113.216v1.918l2.879,0.959,1.92,2.877h1.919l1.919,2.878h1.92l3.838,4.8,5.759,1.918q1.438,1.918,2.879,3.836l1.919,0.959v1.918l5.758,4.8-0.96,2.877,6.718,4.795v1.918l1.919,0.959,0.96,4.8h0.96c0.716,0.759.425,1.892,1.919,1.918,0,0,.671-1.549,1.919-0.959q1.44,1.917,2.879,3.836l4.8,3.836v1.918h0.96c2.056,2.446,4.805,4.211,5.758,7.673h-0.96a3.82,3.82,0,0,0-1.919-1.918v0.959c2.727,1.885,2.949,4.875,4.8,7.672l1.919,0.959,0.96,2.877h0.96v1.919h0.959v1.918l1.92,0.959q0.48,1.917.959,3.836l1.92,0.959V195.7h0.959v1.918l1.92,1.918v1.919l2.879,1.918v2.877l1.919-.959v2.877l3.839,2.877v1.918h0.96v1.918l1.919,1.918v1.919l1.919,0.959v1.918h0.96v1.918l1.919,1.918v1.918l1.92,0.959v1.918h0.959v1.918h0.96v1.919h0.96v1.918l1.919,1.918v1.918l1.919,0.959v4.8l1.92,0.959q0.48,1.918.959,3.837l1.92,0.959q0.48,2.877.959,5.754h0.96v1.918h0.96q0.48,2.877.959,5.754c1.829,4.659,4.51,9.12,4.8,15.345h-0.96q-0.48-2.877-.959-5.754h-0.96v2.877h0.96v7.673a9.361,9.361,0,0,0,3.838-.959v2.877h3.839l0.96,2.877,4.8,0.959V291.6c-4.668.207-3.248,1.025-6.718,1.918-0.4-.8-0.788-2.808-1.919-2.877V291.6H611.4v-0.959l-2.879-.959V296.4c1.089,0.81.14-.121,0.96,0.959,3.31-.891,1.792-1.245,3.839-2.877,0.141,3.991,1.207,4.529,1.919,7.673-1.729.906-1.511,1.328-3.839,1.918V303.11c-1.093-1.093-.382,0-0.959-1.918h-1.92v2.877h1.92q0.479,1.917.959,3.836l1.92,0.959q0.479,6.713.959,13.427c5.729,19.791,4.142,44.239-2.879,61.38l1.92-.959v4.8h-0.96V384.63H611.4v0.959h-0.959v2.877H611.4v-0.959c1.518-1.1.894,2.358,0.96,2.877H611.4l0.96,0.959-0.96,4.8h-1.919v1.918l-2.879-.959q-0.48,7.191-.96,14.386l-1.919.959v1.918h-0.96v-3.837s1.949-.03.96-0.959h-1.92q-1.439,7.193-2.879,14.386h-0.959v4.8h-0.96v1.918h-0.96q-0.478,2.877-.959,5.754h-0.96q-0.96,4.8-1.919,9.591h-0.96l-0.96,3.836h-0.959v2.877h-0.96l-0.96,3.836h-0.959v2.877h-0.96l-0.96,3.837h-0.959v2.877l-1.92.959q-0.958,3.357-1.919,6.713h-0.96v1.918h-0.959v1.919h-0.96v1.918H575.9l-0.96,3.836-1.919.959v1.918h-0.96q-0.479,1.918-.959,3.836h-0.96l-0.96,4.8h-0.959v1.918l-1.92.959v2.877l-1.919.959v1.918l-2.879,1.918v1.918l-1.919,1.919v1.918h-0.96v1.918h-0.96v1.918H556.7v1.918c-0.351.568-1.342,0.6-1.92,1.918h0.96v0.959h-2.879v0.959l-1.919.959v1.918l-1.92.96v1.918l-1.919.959v1.918l-2.879,1.918v0.959l-2.879.959V535.2l-2.879,1.918-0.96,3.837-2.879,1.918v1.918l-1.919.959-4.8,5.754-5.758,4.8-1.919,2.878-2.879.959v5.754c1.093,1.093.382,0,.96,1.918H516.4a9.337,9.337,0,0,0-.96-3.836l-6.717,4.795-0.96,1.918-3.839.959-0.959,1.919-3.839.959v0.959l-3.839.959V577.4H492.4v0.959h-1.919v0.959l-8.637,1.918V582.2h-1.92v0.959h-2.879l-0.959,1.918H473.21v0.959l-5.758.959v0.959l-3.839.96v0.959h-1.919l-0.96,1.918h-1.919l-0.96,1.918-8.637,2.877v0.959H447.3V598.5h-1.919v0.959H443.46v0.959h-1.92v0.959h-1.919v0.959H437.7v0.959h-1.92v0.959l-2.879-.959v0.959h-2.879v0.96h-2.879v0.959h-2.879v0.959h-2.879v0.959h-2.879v0.959h-2.879v0.959H413.71v0.959h-3.839v0.959h-2.879v0.959h-2.879v0.959h-2.879V614.8l-7.678.959v0.959H387.8c-2.912.852-13.839,3.182-18.233,1.918v-0.959H346.532v-0.959l-37.427-.959V614.8h-8.637v-0.959H292.79v-0.959h-6.717v-0.959h-5.758l-31.67-8.632v1.919c1.806,0.8,2.8,1.268,3.839,2.877l-5.758.959v-0.959l-5.758-.959v-0.959h-2.879v-0.959H235.21v-0.96l-3.839-.959v-0.959h-2.879v-0.959h-1.919v-0.959l-4.8-.959V598.5l-3.839-.959v-0.959h-1.919v-0.959H214.1v-0.959l-5.758-1.918v-0.959H205.46v-0.959l-3.839-.959V588.91h-2.879v-0.96H194.9v-0.959h-1.919l-1.919-2.877h-1.92l-1.919-1.918h-1.92v-0.959h-1.919l-23.032-18.222-11.516-12.468h-1.92l-2.879-3.836-9.6-8.632-7.678-8.631-3.839-2.877v-1.918l-5.758-4.8V518.9H115.25v-2.877a14.389,14.389,0,0,1-4.8-4.795v-1.918l-3.839-2.878-0.96-3.836-1.919-.959v-1.918l-5.758-4.795V493l-1.919-.959v-1.919l-2.879-1.918V486.29l-1.919-.959L90.3,481.5l-1.919-.959v-2.877h-0.96V475.74H86.46v-1.918H85.5l-1.919-5.754h-0.96l-0.96-2.877h1.919l0.96,3.836H85.5l-1.919-5.754h-0.96v-1.918L80.7,460.4l-1.919-5.755h-0.96l-0.96-3.836c-1.24-2.311-3.026-3.711-3.839-6.713h-0.96c-0.169.146,0.547,3.26-.96,1.918v-0.959h-0.96l-0.96-4.8a1.721,1.721,0,0,0,.96-1.918l-1.919.959-5.758-18.222H60.548c-0.495-6.934-3.884-13.605-5.758-19.181v-5.754h-0.96v-4.8h-0.96v-4.8h-0.96v-0.959h0.96V384.63h-0.96v-5.755h-0.96v-3.836h-0.96v-1.918h-0.96l-1.919-14.386H45.194c-0.305-5.276-2.768-13.772-.96-20.14,0.37-1.305.741,0.38,0.96-.959V324.209h0.96V308.864h0.96v-1.918h0.96l1.919-8.631H47.113v-0.96h0.96l-0.96-3.836,1.919-.959c1.593-3.866-.736-8.6,1.919-11.509,0.694,2.65.268,2.146,2.879,2.878l3.839-11.509H54.79v0.959c-1.747.764-.747,1.2-1.919,0-1.425-1.528-1.048-5.651-.96-8.632h0.96l0.96-6.713h0.96v-1.918h0.96v-2.877h0.96v-1.918h0.96l0.96-4.8h0.96v-1.918c1.3-2.5,3.075-4.308,3.839-7.672h2.879c0.342-4.912,2.372-8.856,3.839-12.468V221.59H71.1v-1.918h0.96c1.872-4.712-1.568-3.522-.96-6.714,0.434-2.275,3.651-5.62,4.8-7.672,1.659,0.832.328,0.11,0.96,1.918h0.96v-1.918c1.032-.881.228,0.183,0.96-0.959v-0.959l3.839-2.878,0.96-4.8,1.919-.959v-1.918l2.879-1.918c2.161-3.205.051-4.471,4.8-5.755,0.656-2.951,2.592-4.477,3.839-6.713v-1.918h0.96V174.6l2.879-1.918V170.76l6.718-9.591h1.919V160.21c1.3-1.23,1.594-.406,1.919-2.877l-0.959-.959h2.879c0.24-1,2.32-6.244,2.879-6.714l2.879-.959,1.919-2.877h1.919l5.758-8.631h-0.959a3.826,3.826,0,0,1-1.92,1.918v-1.918c3.3-1.968,2.679-3.974,4.8-6.714l2.879-.959,2.879-4.8,5.758-4.8,0.96-1.918H145q1.44-1.917,2.879-3.836H149.8q2.88-3.355,5.758-6.713h1.92l5.758-6.714h1.919l0.96-1.918,6.718-5.754c0.686-1.17-.792-0.342-0.96-0.959-0.35-1.281,1.368-1.438,1.919-1.918V89.24l5.758-1.918,0.96-1.918h1.919l0.96-1.918h1.919l0.96-1.918,5.758-1.918V78.69h1.92V77.731l5.758-1.918V74.854h2.879V73.895h2.879V72.936h1.919V71.977h2.879V71.017h1.919V70.058h2.879V69.1l4.8-.959V67.181c1.093-1.093.382,0,.96-1.918,7.319-.232,14.541-2.936,20.153-4.8h5.758V59.509l8.637-.959V57.591H259.2V56.632h3.838V55.673h3.839V54.713h7.677c11.787-3.436,27.794-4.451,42.226-4.8l15.355-.959V48l3.839,0.959h0.959V48h6.718v0.959c3.39,0.962,7.41-.913,9.6.959-2.917-.005-5.853-0.693-3.839,1.918-2.139,1.04-1.081-1.051-2.879.959l8.637,1.918v0.959h10.557v0.959h2.879v0.959h5.758V58.55H378.2v0.959l8.637,0.959v0.959l8.637,0.959v0.959l6.718,0.959v0.959h2.879v0.959h2.879v0.959h1.919V68.14l6.718,0.959v0.959h1.919v0.959l8.637,1.918v0.959h1.92v0.959l8.637,1.918v0.959h1.919V78.69H442.5v0.959l4.8,0.959v0.959h1.92v0.959l4.8,0.959,0.96,1.918h2.879v0.959h1.919v0.959h1.92q0.478,0.959.959,1.918l5.758,1.918,0.96,1.918,5.758,1.918,0.96,1.918,4.8,0.959,0.96,1.918h1.919l0.96,1.918h1.919l1.92,1.918v1.919l2.879,0.959C494.47,108.836,492.986,111.756,498.161,113.216ZM119.089,163.087a11.8,11.8,0,0,1-2.879,5.754h-0.96v1.919l-1.919.959q-1.44,4.316-2.879,8.631l-1.92.959v1.918h-0.959v1.918l-1.92.96q-0.48,1.917-.959,3.836l-1.92.959q-0.48,1.917-.959,3.836l-1.92.959v1.918h-0.96v1.918h-0.96l-0.96,2.878-1.919.959-0.96,3.836-1.919.959L91.258,212H90.3l-1.919,5.755h-0.96v2.877H86.46v1.918H85.5L83.581,228.3h-0.96v2.877h-0.96v2.878H80.7v2.877h-0.96v2.877h-0.96c-1.63,5.085,1.729,7.614,0,12.468h-0.96v2.877h-0.96v1.918H75.9l-1.919,8.631h-0.96v1.919h-0.96V270.5H71.1l-0.96,3.836h-0.96v2.877h-0.96c-0.949,2.973,1.271,6.227.96,7.673h-0.96c-1.318,4.068-2.922,5.564-3.839,9.59h1.919c-0.256,2.21-.181,2.451-0.96,3.837h-0.96c-1.275,3.008.527,6.288-.96,8.631l-3.839,2.877v6.714h-0.96c-0.262,1.6.906,1.674,0.96,1.918V329h-0.96c-0.55-1.927.115-.829-0.96-1.918l-0.96,8.632-1.919.959v4.795h0.96v10.55h0.96v8.631h0.96v7.673h0.96v4.795h0.96v4.8h0.96v3.837h0.96v2.877h0.96v2.877h0.96v2.877h0.96l0.96,7.673h0.96v2.877h0.96c0.093,1.273-1.637,1.588-.96,3.836h0.96v2.877l1.919,0.959v1.918h0.96l2.879,12.468h1.919l-0.96,1.918,1.919,0.959-0.96,1.919H75.9v2.877h0.96v1.918h0.96V434.5h0.96a12.8,12.8,0,0,1,2.879,5.754h1.919l3.839,11.509,2.879,1.918,0.96,4.795,2.879,1.919v1.918H95.1v1.918h0.96v2.877h0.96L99.9,475.74h-0.96v-0.959H96.057c0.809,3.88,2.935,4.776,3.839,8.632h0.96v-2.877h0.96c0.4,4.041,5.813,10.861,8.637,12.468l-0.96-2.878h0.96v0.959h0.959l4.8,9.591,0.959-.959,1.92,0.959c0.639,1.193,1.522,1.323,1.919,1.918v1.918l1.919,0.959v1.918l2.879,1.919v1.918l1.92,0.959q0.48,1.917.959,3.836l2.88,0.959v0.959l4.8,3.836,0.96,2.878h0.959l0.96,1.918h1.919l0.96,2.877,1.919,0.959,5.758,6.713h0.96c0.169-.146-0.546-3.26.96-1.918v0.959l3.838,2.877,0.96,2.878h1.919v-0.959c-3-1.7-8.833-7.557-10.556-10.55h2.879c1.069,1.256,2.632,1.766,3.839,2.877l0.959,1.918h1.92l10.556,11.509h1.92l6.717,7.672h1.92l1.919,2.878,5.758,1.918v0.959h1.919V561.1l5.759,1.918v0.959l4.8,0.959,1.919,2.877h1.92v0.959l2.879,0.959q0.48,0.96.959,1.918h1.92l2.879,3.837h1.919l0.96,1.918h1.919l0.96,1.918,2.879,0.959v0.959l5.758-1.918v0.959h1.919v0.959l5.758,0.959v0.959h1.92v0.959l5.758,0.959v0.959h2.879v0.959h2.879v0.959h2.879v0.96h3.839v0.959h4.8v0.959h4.8v0.959h4.8v0.959H278.4v0.959h3.839c2.4-.679,4.71-3.9,8.637-2.877v0.959l10.556,0.959v0.959h1.92v0.959h4.8v0.959h2.879v0.959l7.678,0.959V598.5l5.758-.959q0.48,0.958.959,1.918h4.8c7.31,2.233,17.483,1.883,26.871,1.918-1.581-5.292.921-6.106,7.677-5.754l0.96,2.877c5.742,0.415,18.309,1.887,22.072-1.918a6.452,6.452,0,0,1-2.879-2.877c5.3-1.967,15.142-1.008,22.073-.959l0.96-2.877,12.475-1.919,1.92-2.877,7.677-.959,8.637-2.877,0.96-1.918,3.839-.959,0.959-1.918,3.839-.959c0.091-.088-1.188-2.184,0-2.877l9.6-1.919v-0.959h1.919q1.44-1.917,2.879-3.836l8.637-2.877v-0.959l5.758-1.918v-0.959h1.92V558.22h2.879q0.48-.96.959-1.919l6.718-.959v-0.959l3.839-.959v-0.959h5.758l3.839-4.8c-2.871-1.8-2.32-2.7-1.92-5.754l3.839-2.878v-0.959h-0.96c-0.366-2.5,1.683-2.858,2.879-3.836v-0.959c1.888-1.252,4.413.231,6.718-.959l8.637-9.591h1.92l1.919-2.877h0.96v-4.795h0.959V514.1h-0.959l-0.96,2.877h-1.919c0.781-3.183,1.85-3.933,1.919-8.631a20.5,20.5,0,0,0,9.6-1.919l-0.96-.959c-0.244-1.281,1.695-4.5,1.919-7.672a6.452,6.452,0,0,1-2.879-2.877h4.8V493h-0.96l0.96-2.878c2.064-1.338,3.645-4.557,4.8-6.713,3.565,0.57,2.2.557,5.758,0,0.036-4.461,1.168-5.318,1.92-8.632-4.013.434-3.157,1.374-5.759,2.878V475.74c1.093-1.092.383,0,.96-1.918h-2.879v-0.959c-1.093-1.092-.382,0-0.96-1.918l2.879-.959v-0.959a7.191,7.191,0,0,1-2.879-1.918h2.879v-1.918c2.346-.55,2.117-1,3.839-1.918v1.918h0.96l-1.919,2.877H551.9l2.879-3.836h0.96v-2.877h0.96q0.478-1.438.959-2.878H556.7V455.6h3.838v0.959h-0.959v2.877H561.5a18.365,18.365,0,0,0,.96-6.713l-2.879-.959v-1.918H561.5v-0.959a3.824,3.824,0,0,1-1.919-1.918H561.5a9.343,9.343,0,0,1,.96-3.837l2.879,0.96a10.153,10.153,0,0,1-.96-3.837l4.8-.959v-2.877h-3.838V435.46H566.3l1.92-2.877h1.919c0.863-.681.77-1.979,1.919-2.877v-3.837h1.92q0.48-2.877.959-5.754h2.88a3.816,3.816,0,0,1,1.919-1.918l-0.96-2.877h0.96v-6.714h-0.96q-0.48-2.4-.959-4.8c3.635-1.327,5.26-1.028,5.758-5.754-2.129-1.789-3.845-6.356-4.8-9.591h-0.959q0.478-1.438.959-2.877c2.475-1.613,4.659-5.444,6.718-7.673l1.919-.959V374.08h0.96V376h0.96v2.877h0.959l0.96,2.878h0.96q0.958-4.8,1.919-9.591h0.96V364.49h0.959v-1.919h0.96V353.94c-0.714-2.39-2.3-4.953-2.879-7.673l-2.879-.959v-2.877c-1.115-.557-1.513-1.681-1.919-1.918h-2.879v-0.959h0.959V338.6h2.879c0.7-4.041,2.379-6.806,2.879-10.55a9.345,9.345,0,0,1-3.838-.959l0.959-2.877h-0.959V323.25h0.959v-6.713h-0.959c-0.837-1.492-.774-2.322-0.96-4.8h0.96c0.258,0.964.436,3.61,1.919,2.878v-0.96c1.832-1.2,1.592-.972,1.919-3.836H592.21l-0.96-6.713h0.96a9.339,9.339,0,0,0,.959,3.836h0.96v-2.877h-0.96v-2.877H591.25v1.918l-2.879-.959,0.96-5.755h-0.96l-0.96-6.713h0.96a9.333,9.333,0,0,0,.96,3.836h0.959V291.6h-0.959c-1.136-1.978,1.123-3.933.959-4.8h-0.959v-2.877h-1.92v5.754h-0.959q-1.92-8.631-3.839-17.263h-0.96c-1.22-4.638,4.327-7.047,1.92-12.468l-1.92-.959v-1.918h-0.959V254.2h-0.96v-2.877h-0.96v-2.878h-0.959v-2.877h-0.96l-1.92-5.754h-0.959v-1.918h-0.96v-1.918h-0.96V233.1H571.1V231.18h-0.96v-1.918h-0.96v-1.918h-0.959l-1.92-5.754h-0.959v-2.877h-0.96l-0.96-3.837-2.879-1.918q-1.438-4.316-2.879-8.631H556.7v-1.918l-1.92-.959v-1.919h-0.959q-1.44-4.316-2.879-8.631h-0.96l-0.96-2.877c-5.394-1.47-5.087-7.12-10.556-8.632-1.545-7.543-8.422-11.813-11.516-18.222-1.659.832-.328,0.11-0.96,1.918h-0.96v-1.918c-2.307-2-2.124-4.97-3.838-7.672l-1.92-.96v-1.918l-3.839-2.877q-0.478-1.917-.959-3.836l-5.758-4.8v-1.918h-0.96l-1.919-2.878h-1.92L502.96,132.4h-1.92q-0.48-.958-0.959-1.918h-3.839l-6.718-7.672h-2.879l-1.919-2.878h-1.92q-0.478-.958-0.959-1.918h-1.92l-0.959-1.918-2.879-.959v-0.959l-3.839-.959v-0.959l-3.839-.959v-0.959l-6.717-.959-0.96-1.918h-1.919V106.5l-10.557-3.837v-0.959l-2.879.959v-0.959l-3.839-.959V98.83h-0.959l0.959-1.918h-0.959a39.655,39.655,0,0,0-5.758-4.8h-2.879q0.478-.959.959-1.918h-0.959l-0.96-1.918-8.637-1.918-0.96-1.918-4.8-.959V82.526l-3.839-.959V80.608l-4.8-.959V78.69l-5.758-.959a1.559,1.559,0,0,1-1.92.959V77.731h-1.919l-0.96-1.918-9.6-1.918a2.683,2.683,0,0,1-2.879.959V73.895h-5.758V72.936c-1.38-.79-1.633-0.7-3.838-0.959q0.479,0.959.959,1.918c-1.188,1.874-9.459,1.092-12.476.959V73.895h-3.838V72.936c3.136,0.11,7.964.545,9.6-.959a87.382,87.382,0,0,1-24.952-3.836H334.056V67.181H321.581V66.222l-6.718.959V66.222h-7.678v0.959h-9.6A61.917,61.917,0,0,0,281.274,69.1h-5.758c-3.1.953-6.558,2.493-10.556,2.877l0.959-1.918H264.96v0.959h-9.6v0.959h-4.8s0.021,0.613-1.92.959c-1.185,3.19.8,2.838-4.8,2.877v0.959c-2.656,1.677-6.628-.748-10.557.959V78.69l-5.758,1.918v0.959l-9.6,1.918v0.959L214.1,85.4v0.959h-2.879v0.959l-3.839.959V89.24l-8.637,1.918v0.959h-1.919v0.959h-3.839v0.959l-3.839.959v0.959h-2.879l-3.839,4.8h-2.879l-1.919,2.877H175.71l-1.92,2.878h-0.959v1.918l-2.879,1.918V111.3h-1.92l-1.919,2.877h-1.919l-2.879,3.836-9.6,8.632-7.678,8.631H140.2v0.959l-1.92.96v1.918l-2.879,1.918v1.918l-1.919.959,0.96,1.918-2.879.959v0.959l-2.88,1.918v1.918l-2.879,1.919v1.918l-2.879,1.918c-1.3,2.086-.183,2.423,0,3.836h-0.959v0.959ZM263.04,71.977h1.92v0.959C263.031,72.385,264.129,73.051,263.04,71.977Zm138.194,1.918-4.8-.959v0.959h0.96v0.959h2.879v0.959h0.96V73.895Zm10.556,2.877c1.534,2.244,5.05,2.793,7.678,3.836C418.067,78.512,414.611,77.338,411.79,76.772ZM234.25,78.69h1.919v0.959C234.241,79.1,235.339,79.764,234.25,78.69Zm161.226,2.877h3.839v0.959h-3.839V81.567Zm-166.984.959h1.919v0.959C228.483,82.935,229.581,83.6,228.492,82.526Zm160.266,0h5.758v0.959h-5.758V82.526Zm-163.145.959h1.919v0.959C225.6,83.894,226.7,84.559,225.613,83.485Zm222.645,10.55,3.839,0.959v0.959h-1.92l0.96,2.877c3.5,0.173,3.781.569,5.758,1.918v0.959h3.839l1.919,2.878,3.839,0.959,0.96,1.918,5.758,1.918v-0.959l-12.476-8.632c-3.275-1.716-6.54-.749-8.637-3.836,1.928-.55.83,0.115,1.919-0.959-2.9-.575-3.662-1.722-5.758-2.877v1.918Zm-4.8,0a7.432,7.432,0,0,0,2.879,1.918C445.258,94.3,445.732,94.653,443.46,94.035ZM179.548,105.544h-2.879v-0.959h1.92v-0.96C179.5,101.858,179.548,105.544,179.548,105.544Zm295.581,4.8c1.32,2.221,7.233,6.335,9.6,7.672v-1.918C481.414,114.306,479.13,111.379,475.129,110.339Zm10.556,5.754v1.918h0.96v-1.918h-0.96Zm-325.33,5.755c1.093,1.092.382,0,.96,1.918h-0.96v-1.918Zm-37.428,19.181c0.826,1.077.812-.389,0.96,0.959l-0.96,1.918h-0.959Q122.448,142.468,122.927,141.029Zm48.944,56.584c4.886,0.11,9.618,1.742,13.435,2.877h9.6v0.96h1.92v0.959h3.838v0.959h4.8c7.524,2.382,17.492,3.41,24.951,5.754h4.8c5.682,1.793,13.492,3.057,19.193,4.795h5.758c9.035,2.768,20.741,3.973,29.75,6.714h5.758c12.479,3.916,27.856,6.009,41.266,8.631q-0.478,1.439-.959,2.877h0.959c1.751-1.815,13.153-2.187,14.4,0v4.8l3.838-.959v-0.959c2.37-.741,7.208,1.468,8.637,1.918h4.8c4.31,1.365,11.041,2.479,15.355,3.836l9.6,0.959c7.673,2.394,17.412,3.385,24.952,5.754l45.105,7.673,105.564,21.1v0.959h-0.959c-1.643,2.941-4.392,3.581-6.718,5.755l-1.919,2.877h-3.839c-2.455-2.073-6.067-.819-9.6-1.918V282.97h-5.758c-10.553-3.241-23.967-4.358-34.548-7.673l-10.557-.959c-23.083-7.078-50.845-8.135-73.895-15.345l-15.355-1.918c-7.472-2.279-17.423-3.406-24.951-5.754h-4.8c-4.376-1.369-10.852-2.454-15.355-3.837h-4.8c-3.766-1.177-7.692-2.578-12.476-2.877q-2.4,17.741-4.8,35.485l22.072,7.673,0.96,1.918h1.919l1.92,1.918v1.918h0.959c-0.55,1.928.116,0.83-.959,1.918-1.3,1.522-2.082,1.666-4.8,1.918q0.96,7.192,1.92,14.386c6.7-.1,16,3.551,17.274,8.632,3.148,2.754,2.04,12.454,1.919,18.222,7.469,0.658,19.336,3.062,23.992,6.713l0.96,2.878,2.879,1.918,0.96,3.836h0.959v1.918h0.96l0.96,4.8h0.959v3.837h0.96v3.836h0.96v3.836h0.959v5.754h0.96v5.755h0.96q0.48,5.754.959,11.509h0.96l0.96,7.672h0.959l0.96,3.836h0.96q0.48,2.877.959,5.755h0.96c1.334,4.241-1.548,14.2-2.879,16.3h-0.96a7.969,7.969,0,0,0-1.919,3.836,7.484,7.484,0,0,0-3.839,1.918v0.959l-5.758,1.918v0.959l-13.435,2.877v1.918c2.345,1.5,6.911,8.443,7.677,11.509,3.927,0.784,5.7,2.941,9.6,3.836l-0.96,2.878-4.8-.959q0.96,2.875,1.919,5.754h0.96v1.918l1.919,0.959,0.96,3.836,2.879,1.918V476.7l1.919,0.959v0.959h1.92v0.959l5.758,1.918v0.959h2.879c2.506,1.1,2.692,2.486,6.718,2.877,1.865-3.048,4.474-3.9,9.6-3.836v2.877l-3.838,2.877v0.959l-3.839.959v0.959c-4.892,1.721-8.367-1.714-10.556-2.877h-1.92V486.29h-1.919v-0.959h-2.879v-0.959l-5.758-1.918V481.5h-1.92v-0.959H412.75v-0.959h-1.919v-0.959h-1.92v-0.959h-1.919V476.7h-1.919v-0.96h-2.879v-0.959l-3.839-.959v-0.959h-1.92V471.9h-1.919v-0.959l-5.758-1.918v-0.959h-2.879v-0.959l-5.758-1.918v-0.959H378.2v-0.959h-1.92v-0.959h-1.919v-0.959h-1.919V460.4h-1.92v-0.96h-1.919v-0.959h-1.92l-1.919-1.918h-1.919l-0.96-1.918-5.758-1.918v-0.959l-2.879-.959-0.96-1.918-3.838-.959-0.96-1.918h-1.919l-0.96-1.918h-1.919l-0.96-1.919h-1.919v-0.959l-2.88-.959a9.353,9.353,0,0,1,.96-3.836c1.929,0.55.83-.115,1.92,0.959,6.889,1.346,11.459,6.8,17.274,9.591v-1.918c-2.473-2.282-1.761-5.67-4.8-7.673v-0.959l-6.717-.959V434.5h-3.839v-0.959c-3.536-1.314-17.181-4.82-23.032-2.877-4.939,1.64-8.1,6.209-12.476,8.631v0.959c5.264,1.041,8.208,4.546,13.435,5.755-0.745,2.872-.591,2.522-3.838,2.877-2.113-2.463-8.975-5.539-13.436-5.755-0.647,1.208-1.5,1.3-1.919,1.919v1.918l-2.879,1.918v1.918l-1.92.959v1.918L292.79,455.6v1.918l-1.919.959q-1.918,2.4-3.839,4.8h-1.919l-0.96,1.918h-2.879v0.959h0.96c2.857,3.256,9.289,4.566,13.435,6.713v0.959h1.92v0.959h2.879c2.119-2.664,4.711-3.8,9.6-3.836,0.81,1.088-.122.14,0.959,0.959-0.81,1.088.122,0.14-.959,0.959-2.5,4.555-6.128,6.786-13.436,6.714v-0.959l-4.8-.959V476.7l-5.758-1.919v-0.959l-8.638-2.877v-0.959h-1.919v-0.959H273.6v-0.959l-5.758-1.918v-0.959H264.96v-0.959l-5.758-1.918v-0.959h-1.92V460.4h-1.919v-0.96h-1.919v-0.959h-1.92v-0.959h-1.919v-0.959h-1.92V455.6l-5.758-1.918v-0.959h-2.879v-0.959l-5.758-1.918v-0.959h-1.919v-0.959l-5.758-1.918-0.96-1.918-5.758-1.919-0.96-1.918h-1.919l-0.96-1.918h-1.919l-0.96-1.918h-1.919L209.3,434.5h-1.919v-0.959c-3.47-2.029-6.54-2.315-7.677-6.714,1.088-.809.139,0.122,0.959-0.959,1.929,0.551.831-.115,1.92,0.959,3.034,0.609,8.143,3.2,10.556,4.8l0.96,1.918,3.838,0.959,0.96,1.918h1.92q0.478,0.959.959,1.918h1.92V439.3h1.919v0.959c1.324,0.878,1.685.652,3.839,0.959v-0.959l2.879-.959,4.8-5.754,1.919-.959v-1.918l2.879-1.918v-1.919q1.44-.958,2.879-1.918v-1.918c1.771-2.469,3.663-1.605,4.8-5.754l-5.758-1.918a9.35,9.35,0,0,1,.959-3.836l7.678,3.836v-0.959L264,405.729h3.839V404.77c3.471-1.125,6.288.309,8.637-1.918-9.879-6.014-11.693-24.708-15.355-37.4v-8.632h-0.96V345.308H259.2c-2.137-7.558,2.777-19.242-1.92-23.976-2.078-2.447-4.958-2.9-7.677-4.8l-1.92-2.878h-1.919V312.7l-2.879-.959-0.96-1.918h-1.919l-1.919-2.877h-1.92q-0.48-.959-0.959-1.918h-1.92v-0.959l-2.879-.959q-0.48-.96-0.959-1.918h-1.92q-0.959-1.438-1.919-2.877h-1.919l-0.96-1.919h-1.919l-0.96-1.918c-2.574-1.69-5.875-2.493-9.6-2.877a36.018,36.018,0,0,0,1.919,13.427H204.5q-0.96-6.713-1.919-13.427c-10.169-.025-18.538-0.771-26.871,0-1.885-2.739-4.9-2.919-7.678-4.8q-0.48-.96-0.959-1.918l-2.879-.959V260.911c-2.044-2.305-.961-10.339-0.96-14.386q0.48-19.179.96-38.362c-1.089-.81-0.14.122-0.96-0.959l-48.944-8.632c1.408-5.366,6.938-6.524,9.6-10.549l41.266,7.672c-0.094-6.124-.745-14.626.96-19.181l4.8,0.959v0.959C172.781,180.5,171.957,193.354,171.871,197.613Zm375.234-5.754h-2.879v-1.918l2.879-.959c0.849,3.522,2.974,4.845,3.839,8.631h-0.96C548.464,194.977,547.613,195.89,547.105,191.859Zm3.839,5.754c1.092,1.093.382,0,.959,1.918h-0.959v-1.918ZM197.782,251.321q-0.959-2.877-1.919-5.755H194.9v-6.713h-0.959V233.1h-0.96v-6.713h-0.96v-5.754h-0.959c-0.806-2.734-.013-5.181-0.96-7.673-4.116-.392-15.86-3.922-17.274-2.877-1.6,1.791-1.037,7.214-.96,10.55v3.836h0.96v20.14c2.222,0.839,4.229.976,7.677,0.959v-0.959l4.8,0.959v0.959h0.96c0.71,0.858.837,4.208,1.919,4.8h9.6Zm0-36.445c1.758,10.5,4.528,21.23,4.8,32.608h-1.92l1.92,11.509,15.354,6.713v0.96l3.839,0.959v0.959l5.758,1.918v0.959l3.839,0.959v0.959l3.839,0.959V275.3h1.919v0.959h1.919v0.959h1.92v0.959h1.919v0.959l5.758,1.918v0.959h1.92v0.96h1.919v0.959H254.4v0.959h1.92v0.959h1.919c3.127,1.67,5.461,3.822,9.6,4.8,1.173-4.866,4.552-7.609,7.677-10.55l0.96-1.918c1.615-1.107,2.169-.026,3.839-1.918a28.173,28.173,0,0,0,6.717-.959v-20.14c2.187,0.426,8.813,3.34,9.6,4.795q0.96,8.631,1.919,17.263l17.275-.959,19.193,2.877q2.4-17.261,4.8-34.526c-5.167-1.732-5.962-.379-5.759-7.672h-1.919v-0.959c-3.115.615-4.993,4.486-10.556,2.877-5.71-1.652-13.523-3.028-19.194-4.8h-4.8c-12.484-3.911-27.813-4.743-40.307-8.632l-9.6-.959v-0.959h-4.8v-0.959h-4.8V221.59h-4.8v-0.959l-10.556-.959C215.734,217.485,206.192,215.21,197.782,214.876Zm-3.838,40.281a9.345,9.345,0,0,1,3.838.959V254.2H194.9v-0.959C194.038,251.446,193.944,255.157,193.944,255.157ZM176.669,282.97c8.536-.043,16.713.747,23.992,0.959V282.01l-2.879-1.918v-0.959h-1.919l-0.96-1.918h-1.919l-1.919-2.877h-1.92l-0.96-1.918-2.879-.959V270.5h-1.919l-1.919-2.877-3.839-.959-0.96-1.919H175.71v0.959h-0.96C176.268,269.848,176.649,277.683,176.669,282.97Zm-127.637-4.8c1.093,1.093.382,0,.96,1.918h-0.96v-1.918Zm1.919,0h0.96v2.877h-0.96v-2.877ZM36.557,317.5l-3.839.959v-8.632h0.96V307.9h0.96v-2.877H35.6V303.11h0.96v-2.877l3.839-1.918,0.96-3.837h0.96V292.56h0.96l1.919-5.754h0.96V282.97h0.96l0.96-2.878h0.96v2.878h-0.96l-0.96,6.713h-0.96v2.877h-0.96l-0.96,3.836h-0.96v1.919h-0.96v2.877C40.212,305.95,37.25,311.23,36.557,317.5Zm572.928-37.4h0.96v3.837h-0.96v-3.837Zm-26.871,1.918c1.093,1.093.382,0,.96,1.919h-0.96V282.01Zm-2.879,4.8h0.96v4.8h-0.96v-4.8Zm-538.379.959c1.093,1.093.382,0,.96,1.918h-0.96v-1.918Zm-0.96,1.918h0.96v2.877H40.4v-2.877Zm-9.6,10.55c-1.98-.267-1.731-0.895-1.919-0.959a1.482,1.482,0,0,0-1.919.959c-0.825,1.686-.96-2.878-0.96-2.878,2.069-1.2,2.813-2.577,3.839-4.8H30.8l0.96,5.755C30.665,299.407,31.376,298.318,30.8,300.233Zm31.669-7.673c-0.306.771-1.966,3.012-.96,4.8h0.96a9.844,9.844,0,0,1,.96-4.8h-0.96Zm527.822,1.918v2.877h0.96v-2.877h-0.96Zm-5.758,1.918c1.523,1.3,1.667,2.081,1.92,4.8h-0.96v-1.918h-0.96V296.4Zm23.992,9.591,0.96,5.754h0.96v-4.795ZM35.6,307.9v1.918h0.96V307.9H35.6Zm551.814,0c1.093,1.093.383,0,.96,1.918h-0.96V307.9Zm3.839,9.591q1.44,5.274,2.879,10.549h1.919c-0.881-2.337-1-5.939-.959-9.59-1.089-.81-0.14.121-0.96-0.959H591.25Zm-2.879,18.222h1.919v0.959C588.362,336.127,589.46,336.792,588.371,335.718Zm0,8.631h-2.879V343.39h0.96a3.82,3.82,0,0,1,1.919-1.918v2.877Zm-2.879,3.837,2.879,0.959V350.1h-2.879v-1.918Zm3.839,2.877h1.919v0.959C589.321,351.472,590.42,352.137,589.331,351.063Zm1.919,21.1h-2.879c-1.144-2.122-2.236-2.866-2.879-5.754-2.712-.641-3.618-1.774-4.8-3.837,1.728-.905,1.511-1.328,3.838-1.918v2.878h1.92c-0.48-1.686-1.547-2.178,0-3.837h1.919l-0.96-2.877c0.931-2.234,4.571-4.618,6.718-5.754l0.96,5.754c-0.213.657-2.511,0.141-1.92,2.877l1.92,0.959v0.959h-0.96v5.755h-0.96C591.945,369.227,591.677,369.17,591.25,372.162ZM59.589,369.285h0.96v2.877h-0.96v-2.877ZM73.024,394.22h1.919v0.96C73.015,394.629,74.113,395.3,73.024,394.22ZM69.186,397.1h0.96l0.96,6.713h-0.96Zm-4.8,5.754v1.918h0.96v-1.918h-0.96ZM71.1,404.77h0.96v2.877H71.1V404.77Zm531.661,0v2.877h0.96V404.77h-0.96ZM65.347,407.647v0.959h0.96v2.878h0.96v-2.878Zm207.29,0c-1.936,1.7-5.195.786-7.677,1.918v0.959c-3.434,1.8-5.387,3.963-8.637,5.755v0.959c5.283,1.026,9.154,4.748,13.435,6.713h2.879v0.959l3.839,0.959v0.959H278.4v0.96h1.92v0.959h2.879v0.959h1.919v0.959h1.919v0.959h1.92v0.959h1.919v0.959h1.919V434.5h1.92v0.959h2.879v0.959l3.838,0.959v0.959c1.241,0.55.472-.463,0.96-0.959,2.331-1.334,3.154-3.633,4.8-4.795h1.92l0.96-1.918,11.516-3.837v-0.959c-5.394-.493-8.645-3.7-12.476-5.754h-1.92v-0.959h-1.919V418.2h-1.919v-0.959h-1.92v-0.959h-1.919V415.32L293.75,413.4v-0.959h-2.879v-0.959h-1.919v-0.96l-5.758-1.918v-0.959H272.637Zm332.048,7.673v5.754c-1.928-.55-0.83.115-1.919-0.959h0.96c0.648-1.166.205-3.836-.96-3.836V415.32h1.919ZM58.629,419.156c1.093,1.093.382,0,.96,1.918h-0.96v-1.918Zm173.7,23.017v1.919l10.556,3.836v0.959h1.919v0.959h1.92v0.959l3.839,0.959v0.959h2.879v0.959l3.838,0.959V455.6h1.92v0.959h1.919v0.959h1.919v0.959L268.8,460.4v0.959h2.879c2.693,1.21,2.389,2.317,6.718,2.877,1.023-1.219,1.695-1,2.879-1.918v-0.959h1.92l3.838-4.8,1.92-.959v-1.918l2.879-1.918v-1.918l2.879-1.918V446.01c1.767-2.466,3.673-1.608,4.8-5.755l-5.758-1.918v-0.959h-2.879v-0.959h-1.919V435.46h-1.92V434.5h-1.919v-0.959l-5.758-1.918v-0.959h-2.879v-0.959h-1.92v-0.959h-1.919v-0.959l-5.758-1.919V424.91H264v-0.959h-1.919c-3.455-1.794-4.185-3.42-9.6-3.836-0.646,1.237-1.5,1.29-1.919,1.918v1.918l-2.88,1.918C243.656,431.63,240.2,440.5,232.331,442.173ZM59.589,422.033h0.96v2.877h-0.96v-2.877Zm0.96,2.877h0.96v2.878h-0.96V424.91Zm507.67,2.878h1.919q-0.96,1.917-1.919,3.836h-0.96A9.333,9.333,0,0,1,568.218,427.788Zm30.709,0c1.307,1.117,1.467,1.749,1.92,3.836h-0.96v-0.959h-0.96v-2.877ZM358.048,438.337c0.9,4.426,2.88,7.36,4.8,10.55v1.918c1.087,1.424,6.683,2.8,8.637,3.836V455.6l3.839,0.959v0.959H378.2v0.959l3.838,0.959v0.96l3.839,0.959v0.959l3.839,0.959v0.959H392.6v0.959l5.758,1.918v0.959h1.919v0.959h1.92c3.067,1.634,5.55,3.9,9.6,4.8l-0.959-2.877h-0.96q-0.96-2.877-1.919-5.754c-1.589-2.956-3.888-4.787-4.8-8.632-3.977-.78-6.589-3.185-9.6-4.8l-5.758-1.918v-0.959l-3.838-.959v-0.959h-2.879V446.01h-1.92v-0.959h-1.919v-0.959h-1.919v-0.96H373.4C368.869,440.748,365.007,438.651,358.048,438.337Zm20.154,1.918c1.818,2.706,17.007,9.649,21.113,10.55v-0.959c-2.663-2.323-3.724-5.544-6.718-7.673v-0.959h-7.678v-0.959H378.2Zm170.822,14.386H551.9V455.6h0.96v2.877a9.35,9.35,0,0,1-3.839-.959c-1.133-2.533-1.835-3.608-1.919-7.672h0.96v0.959h0.959v3.836Zm-2.879,3.836h1.92v2.878h-0.96V460.4C546.012,459.3,546.723,460.392,546.145,458.477ZM78.782,460.4c1.093,1.092.382,0,.96,1.918h-0.96V460.4ZM546.145,471.9a7.426,7.426,0,0,0,2.879,1.918C547.943,472.174,548.417,472.523,546.145,471.9ZM99.9,478.618c1.093,1.092.382,0,.96,1.918H99.9v-1.918Zm438.573,0h1.919v1.918h-1.919v-1.918Zm-15.355,10.549c2.651,0.694,2.147.268,2.879,2.878h3.839v1.918h-0.96c-1.627,1.893-2.472.247-.96,2.877-2.374,1.768-1.855-1.061-2.879,2.877h-1.919c0.67-2.719,1.711-2.769,2.879-4.795C523.583,493.563,523.242,492.956,523.113,489.167Zm4.8,10.55h-1.919v-0.959h0.96V497.8C528.044,498.892,527.334,497.8,527.911,499.717Zm-2.879,1.918a9.366,9.366,0,0,1,3.839.959c-0.611,1.193-1.573,1.374-1.919,1.918v1.918h-0.96v1.919l-1.919.959V514.1h-0.96c-1.151-1.782-2.687-2.055-3.839-3.836h1.92c1.093,1.092,0,.382,1.919.959v-2.877l-2.879-.96V506.43C522.84,505.314,524.245,504.724,525.032,501.635Zm12.476,42.2c1.093,1.092.382,0,.96,1.918h-0.96v-1.918Zm-36.468,2.877q-0.48,1.918-.959,3.836h-0.96V547.67l-3.839.959V547.67h0.96C498.382,545.345,498.048,546.332,501.04,546.711Zm20.154,19.181c1.092,1.093.382,0,.959,1.918h-0.959v-1.918Zm-96.928,15.345h5.758V582.2l-6.718.959Zm-43.185,9.591H383v0.959C381.071,591.237,382.17,591.9,381.081,590.828ZM253.444,606.173c3.453,0.69,4.87,2.491,7.677,3.836v0.959h-3.839c-2.069-2.3-3.179-.776-4.8-1.918v-0.959C253.577,607,252.866,608.087,253.444,606.173Z" transform="translate(1.5 -8.5)"/>
</svg>
