<svg xmlns="http://www.w3.org/2000/svg" width="650" height="650" viewBox="0 0 650 650">
  <defs>
    <style>
      .cls-1 {
        stroke: #000;
        stroke-width: 3px;
        fill-rule: evenodd;
      }
    </style>
  </defs>
  <path id="Hiker_1" data-name="Hiker 1" class="cls-1" d="M294.449,44v3.56h21.362V44H294.449Zm78.327,0v3.56h14.242V44H372.776Zm-99.689,3.56v3.56l-24.923,3.56v3.56H237.483V61.8l-17.8,3.56v3.56l-14.242,3.56v3.56L191.2,79.6q-1.781,3.56-3.56,7.12L173.4,90.283l-7.12,10.681h-7.121l-7.121,10.681h-7.12l-10.681,14.241-21.362,17.8v7.12l-10.681,7.121v7.12L91.51,172.169l-3.56,14.241-7.121,3.56-7.121,21.361h-3.56v7.121h-3.56v10.681h-3.56v7.12h-3.56l-7.121,35.6C44.278,297,38,359.939,48.786,389.343h3.56V360.861c-4.688-5.315-5.371-24.742-3.56-35.6l10.681-67.645h3.56v-10.68h3.56l3.56-21.362h3.56l7.121-21.361h3.56l3.56-14.241,7.121-3.56,3.56-14.241,7.121-3.561v-7.12l39.164-35.6q7.119-8.9,14.241-17.8h7.121L173.4,97.4h7.121q1.781-3.56,3.56-7.12H191.2q1.78-3.56,3.56-7.12L209,79.6v-3.56l21.362-7.12v-3.56h10.681V61.8h7.12v-3.56h10.682v-3.56c11.257-3.99,24.053-.117,32.043-7.12h-17.8Zm128.172,0c4.056,4.054.013,1.418,7.121,3.56C404.323,47.067,408.367,49.7,401.259,47.56Zm14.241,3.56c4.057,4.054.013,1.418,7.121,3.56C418.565,50.627,422.608,53.263,415.5,51.121Zm-85.448,7.121V61.8H298.009v3.56H283.768v3.56H269.527v3.56L237.483,79.6v3.56l-21.362,7.12v3.56L201.88,97.4v3.56l-10.681,3.56q-1.781,3.56-3.56,7.121h-7.121l-7.121,10.68h-7.12l-7.121,10.681h7.121v-3.56l24.922,3.56v3.56h39.164v3.561l24.922,3.56v-3.56h7.121q7.119-8.9,14.241-17.8h10.681l3.561-7.12H301.57v-3.56l17.8-3.561,7.121-10.68c11.541-5.423,24.655,5.437,32.043,3.56V97.4h7.121q1.779-3.56,3.56-7.12h17.8l7.12-10.681h7.121v-3.56l17.8-3.56v-3.56C390.466,66.519,363.637,58.657,330.052,58.241ZM305.13,122.325H290.889c-7.143,10.666-3.178,1.566-10.681,7.121l-10.681,14.241-10.681,3.56v7.12h14.241v3.561l21.362-3.561c3.828-.09,14.241-3.56,14.241-3.56v7.121l-21.362,3.56v7.12c15.28-5.882,13.321-2.584,24.923,3.561q1.779-7.121,3.56-14.241l10.681-3.561v3.561c5.821,3.99,14.044,21.314,7.121,24.921v3.561c2.291,2.3,9.42,1.246,14.241,7.12h-53.4c-10.078-11.51-21.945-9.332-35.6-7.12l-3.561-7.121c-7.367-5.88-10.91-6.815-24.922-7.12q1.779-3.561,3.56-7.121h-3.56c-4.688-8.191-7.62-6.946-10.681-17.8l-17.8-3.56v3.56h3.56c3.806,4.49,6.372,3.689,10.681,7.12v3.561l10.681,3.56v10.681h3.561v3.56c-13.427,1.426-18.866,7.4-28.483,10.681h-17.8v3.56H173.4v3.56c-12.434,2.984-20.24-9.37-28.482-10.681h-3.561v3.561H112.872l-3.561,7.12h-3.56v3.56h3.56c4.234,3.894,41.405,11.709,53.405,7.121v-3.56h7.121l3.56-7.121h14.242v-3.56c5-.573-1.379,2.584,3.56,3.56l49.845,3.56c6.8-2.208,23.9-14.622,35.6-10.68v3.56h7.121q1.781,3.559,3.56,7.12h24.923c1.056,0.251,1.055,4.578,7.12,3.561V197.09h17.8v3.561c14.633,4.2,36.879-2.267,46.284-3.561,13.63-1.874,19.127,7.71,28.483,0l-21.362-3.56v-3.56c-6.844-1.938-15.232,9.189-24.922,3.56v-3.56H362.1v-7.121l-7.12-3.56V165.048c-3.82-6.805-18.8-8.52-24.923-17.8,8.391-.385,9.035-1.06,14.242-3.56v3.56c8.538,5.012,21.871,18.815,32.043,10.681-10.664-2.765-9.365-2.194-10.681-14.241h3.56c5.118,8.341,12.5,12.925,24.922,14.241v7.12c11.448,2.742,7.672,5.37,21.362,7.121v-3.561c-8.184-7.247-2.252-8.843-7.12-17.8-0.443-.815-5.273-3.59-7.121-7.12h7.121c4.645,7.043,15.757,12.08,24.922,14.241v7.12c9.835,2.575,7.965.994,10.681,10.681,13.6,3.164,23.861,11.062,39.164,14.241v-3.56l-10.681-3.561v-3.56h-7.121v-3.56h-7.121v-3.56H447.543l-17.8-21.362h-7.121l-3.56-7.12-32.043-7.121v-7.12H379.9c-2.042-8.7-3.727-7.853-7.121-14.241H379.9v-3.56c5.73-2.692,18.647,5.352,21.362,7.12v3.56H411.94v3.561c5.058,3.149,6.2,2.287,14.241,3.56v7.12l14.242,10.681v3.56c9.861,6.606,39.011,16.293,53.4,17.8v-3.56c-6.7-4.069-9.851-19.023-17.8-10.681v-10.68c-4.039-3.006-.518.451-3.56-3.56h7.12v3.56h3.561v-3.56c6.972-1.436,4.525,1.215,7.12,3.56q8.9,14.239,17.8,28.482c7.4,3.763,10.65-4.881,14.242-3.561q1.779,3.561,3.56,7.121c13.622,7.061,14.828-4.62,17.8,17.8-1.483,2.061-5.816.522-3.561,7.121h3.561c5.326,6.263,9.623,6.758,21.362,7.12,5.707-6.893,12.973-9.547,17.8-17.8h-3.56c-4.457,8.456-17.227,16.64-24.922,10.681h-7.121q1.781-14.24,3.56-28.482h3.561c3.136,3.938-.683.849,3.56,3.56h3.56v3.56c4.689,3.316,6.325,2.7,14.242,3.56v-3.56c-7.357-6.115-8.457-13.326-14.242-21.361l-28.482-24.922-7.121-10.681H518.75l-7.12-10.68h-7.121l-3.56-7.121-10.682-3.56V97.4l-14.241-3.56v-3.56L433.3,76.042V79.6c-12.338,3.069-23.249-1.933-32.043,3.56l-7.121,10.681h-7.12V97.4H372.776q-1.779,3.56-3.56,7.12H362.1v3.56l-35.6-3.56c-1.839,3.756-6.671,6.273-7.121,7.121v10.68h-3.56q-1.78,10.68-3.56,21.362H308.69v-7.121h-3.56V122.325ZM468.905,97.4v7.12l-10.681,3.56c-1.7,16.691-3.008,22.942,0,39.163h-3.56c-6.217-6.939-8.309-3.027-14.241-7.12l-17.8-21.362-10.681-3.56v-7.121c4.04-3.005.518,0.452,3.56-3.56h10.681c4.229-15.7,16.845-11.589,35.6-10.681C465.841,97.9,461.8,95.262,468.905,97.4Zm3.561,10.68h10.681c2.042,8.7,3.727,7.853,7.12,14.241h-17.8l-3.561,10.681h-3.56V122.325C472.142,117.853,471.251,118.716,472.466,108.084Zm39.164,35.6-10.681,3.56c-1.609-14.886-5.1-11.71-10.682-21.361,4.04-3.006.518,0.451,3.561-3.561l10.681,3.561q1.779,3.559,3.56,7.12H518.75l3.561,10.681,7.12,3.56a77.841,77.841,0,0,1,14.242,21.361h-7.121v-3.56H522.311v-3.56C516.711,156.986,513.671,152.017,511.63,143.687Zm-42.725-10.681c4.054,4.056,1.419.013,3.561,7.121h-3.561v-7.121Zm-316.87,7.121v7.12h7.121v7.12l10.681,7.121v3.56h7.121l3.56,7.121H191.2c0.972,0.543,3.55,5.212,7.121,7.12v-7.12h-3.561V161.488H191.2C185.162,154.054,164.345,141.582,152.035,140.127Zm85.448,7.12-14.241-3.56v3.56h3.56c3.087,3.657,6.14,4.92,10.681,7.12v-7.12Zm-85.448,14.241c-0.716-8.448-1.475-8.806-3.56-14.241h-7.121l-14.241,17.8c19.983-1.12,19.135-3.141,35.6,3.56C158.705,162.489,160.464,163.784,152.035,161.488Zm60.526,3.56c6.021,7.659,7.121,7.121,7.121,7.121C222.3,168.707,213.509,165.91,212.561,165.048Zm-10.681,7.121c6.021,7.659,7.121,7.12,7.121,7.12C211.621,175.828,202.828,173.031,201.88,172.169Zm309.75,17.8-3.561,7.12c0.263-.148,10.317-5.647,7.121-7.12h-3.56Zm17.8,0c6.021,7.659,7.121,7.12,7.121,7.12C539.172,193.629,530.379,190.832,529.431,189.97Zm-46.284,14.241-24.923-3.56V197.09H451.1v-3.56c-10.2-3.358-17.775,2.317-24.923,3.56,3.006,4.04-.451.518,3.561,3.561v3.56l21.362-3.56q1.779,3.559,3.56,7.12c11.324,5.317,25.446.271,42.724,0l7.121-10.681c-15.6,4.651-6.728-1.118-24.923-3.56v3.56C483.64,201.147,481.005,197.1,483.147,204.211Zm128.172,49.843-10.681-35.6h-3.56v-7.121h-3.561q-1.779-5.34-3.56-10.68c-8.045,2.108-8.809,3.022-14.241,7.12v3.56c-8.217,5.2-22.624,6.709-35.6,7.121v10.681h-7.12L522.311,197.09c-12.828,6.974-19.377,17.673-35.6,21.362,4.056,4.054.013,1.418,7.121,3.56,6.307,7.068,7.558,2.942,14.241,7.121l3.561,7.12,21.362,3.56v3.56H518.75v3.561l-14.241-3.561v3.561h3.56c6.166,5.446,37.626,6.4,49.845,3.56v-3.56c5.776-1.078,6.5,3.444,7.121,3.56l21.362-3.56v3.56ZM237.483,204.211v7.12h-3.56v-3.56c-5.273,2.719-4.4,6.819-10.681,10.681-1.972-19.282-12.031-15.3-32.043-14.241v10.681h3.56c2.043-7.156-.427-3.081,3.561-7.121v17.8h7.12v10.681h-7.12v-7.12l-10.681-3.561-14.242-17.8h-3.56q-1.78,7.121-3.56,14.241c-12.491-3.084-13.33-8.891-28.483-10.681-3.006,4.04.451,0.518-3.56,3.561,4.056,4.053.012,1.418,7.12,3.56v7.12H112.872c2.575-9.834.993-7.964,10.681-10.68v-7.121c-12.595,1.02-17.39,4.8-28.483,7.121-2.055,5.439-2.713,5.84-3.56,14.241,6.678,2.928,9.313,5.274,17.8,7.12v7.12c4.68,2.881,4.193,2.508,7.121,7.121l14.241-3.56q-1.779-5.34-3.56-10.681c12.023-2.493,13.715-7.72,24.922-10.681,8.769,12.613,6.651,1.1,17.8,7.121l10.681,14.241h7.121q1.779,3.559,3.56,7.12l21.362-3.56v3.56l21.362,3.56v3.561h39.164v3.56c7.2,1.116,7.121-3.56,7.121-3.56,13.832-3.075,34.328-1.355,46.284-3.561v-3.56l-17.8-7.12c-7.238-10.928,9.089-11.467-10.681-17.8v-3.561h-17.8v3.561l-21.362,7.12v3.56h-7.121v3.56H244.6v3.561c-5.237,2.17-12.455,1.332-17.8,3.56v-7.121h3.561q-1.781-5.339-3.561-10.68s3.256-1.435,3.561-7.121H226.8v-3.56h3.561c4.454-5.646,11.938-9.974,17.8-14.241v-3.56h7.121v-3.56Zm85.449,7.12v7.121c8.513,1.65,11.2,4.124,17.8,7.12q-1.779,5.34-3.56,10.681c10.42,2.435,11.658,3.963,14.241,14.241l14.242,3.56v3.56h3.56v-3.56h17.8v-3.56l-32.043-10.681H379.9v3.56l21.362,3.561v-3.561c7.25-2,3.174,1.035,7.121-3.56h-3.561v-3.56h14.242v-3.56l-17.8-10.681q-1.781-3.559-3.56-7.12l-7.121,3.56v-3.56c-4.054-4.057-1.418-.013-3.56-7.121-10.562.292-31.139-.963-32.043,7.121v-7.121H344.294v7.121h-7.121v-7.121c-5.711-2.155-8.455-3.138-17.8-3.56-3,4.039.452,0.518-3.56,3.56C319.867,211.825,315.824,209.189,322.932,211.331Zm85.448-3.56v7.121c8.593,5.027,16.533,16.346,21.362,24.921,6.678-2.929,9.313-5.274,17.8-7.12v-3.56l-17.8-3.561v-3.56c4.054-4.056,1.418-.013,3.56-7.12,11.249,2.716,13,7.928,24.922,10.68v-7.12c-5.529-3.156-7.462-5.222-10.681-10.681C432.342,210.34,427.982,208.134,408.38,207.771Zm-170.9,14.241,3.561,10.681h-7.121c-3.3,3.806,3.209,3.23,3.56,3.56v3.56h10.681c2.156-5.711,3.139-8.454,3.561-17.8l-3.561,3.56ZM84.389,236.253v7.12l24.922,14.241v-7.12c-6.119-4.011-4.825-2.252-7.12-10.681Zm42.724,14.241v7.12c7.9-1.283,16.994-6.778,28.483-3.56v3.56l28.482,3.561v-3.561h-7.12v-10.68c-9.3-4.921-6.028-6.3-21.362-7.121v-3.56Zm366.715,0v-7.121c-11.051-.391-26.384-1.674-32.043,3.561Zm-56.966-3.56v3.56l-24.922,3.56v3.56h24.922v-3.56l21.362-3.56v-3.56H436.862Zm71.207,64.084c-2.575,9.835-.993,7.965-10.681,10.681v7.12l10.681,3.561a47.431,47.431,0,0,1-17.8,17.8c2.745,3.616,4.376,3.5,7.121,7.12H472.466L461.785,343.06h14.241V339.5c-9.3-2.221-10.131-3.774-14.241-10.681h7.12q-1.779-7.119-3.56-14.241h-7.121c3.536-10.946,3.326-3.4,0-14.241h-3.56c-0.094,11.879-1.871,16.118-3.56,24.922h-7.121v3.56h10.681v3.561l-10.681,7.12-3.56,3.56h7.12c-3.831,16.282-15.476,15.13-35.6,14.241-5.419,4.988-28.239,7.067-39.164,7.121q-1.779-5.34-3.56-10.681c-5.651-4.82-6.184-7.723-7.121-17.8h10.681v-3.56h3.561q1.779-10.68,3.56-21.362l-3.56-3.56h3.56c5.248-9.035,6.342-6.331,7.121-21.362-4.04-3-.518.452-3.561-3.56l-14.241,3.56v-3.56l-17.8-3.56v3.56h-7.12v3.56H322.932v3.561c-4.847,4.149-5.441,6.5-7.121,14.241H290.889c-1.706-4.738-1.666,1.1-3.561-3.561V286.1h-3.56v3.561h-3.56V303.9l-10.681,7.12v3.56h7.12V321.7h-7.12l-3.561,21.361H255.285V339.5h7.121V328.819c-7.156-2.042-3.08.427-7.121-3.56,10.691-3.53,3.886.308,3.561-10.681h-7.121v-7.12h3.56V303.9l-7.121-3.561V286.1H244.6v3.561h-3.56v17.8h-3.561v3.56s4.549,2.287,3.561,7.121c0,0-3.528.97-3.561,7.12h3.561v3.56l-7.121,3.561v7.12h7.121c-2.042,8.7-3.728,7.853-7.121,14.241H244.6v7.12l-10.681,3.561v3.56c2.037,2,13.907.5,10.681,7.12h-3.56c-6.122,7.6-7.238,2.017-10.681,14.241h3.56c3.729-2.785,22.194-.406,35.6,0v-3.56c-8.08-4.578-9.389-5.8-10.681-17.8,4.053-4.056,1.418-.013,3.56-7.121l10.681-3.56c-0.12-18.421,4.227-25.4,7.121-39.162,11.678-5.5,13.756-10.192,32.043-10.681v7.12c4.039-3,.517.452,3.56-3.56h3.56V300.337h3.561q1.779-5.34,3.56-10.68l14.241,3.56,3.561-7.121,39.163,3.561c-1.82,8.508-3.388,8.3-7.12,14.241h-3.561c-2.863,6.43,3.561,10.68,3.561,10.68,1.415,6.932-2.463,4.834-3.561,7.121v7.12c-3.386,4.335-10.126,3.228-17.8,3.561L362.1,357.3h3.561v7.121h3.56q-1.781,12.459-3.56,24.921h21.362c1.263-.612,10.515-16.165,14.241-14.241v3.561c6.12,4.011,4.825,2.252,7.121,10.68,15.24-.425,48.423-4.2,56.965,3.561-15.24-.426-48.423-4.2-56.965,3.56h-3.561v10.681c6.872,8.2-.09,23.017,3.561,35.6h3.56q3.56,37.378,7.121,74.765h3.56v3.56h14.241v3.561H422.621q1.781,23.139,3.56,46.283c8.448,0.716,8.806,1.475,14.242,3.56v7.12c-3.833,2.144-5.561,6.162-7.121,7.121h-7.121v3.56l-32.043,10.681V599.4h-3.56q-1.78-12.461-3.56-24.922h-3.561v-7.121H379.9q-1.781-5.338-3.56-10.68c-4.054,4.056-1.419.012-3.561,7.12-3.737,4.111-6.05,22.172-7.12,28.482H362.1v-17.8c7.234-7.44,7.427-24.535,3.561-35.6H362.1v-17.8c-12.733-1.338-47.1-8.045-53.405-3.56-8.014,4.679-30.325,36.826-24.922,53.4h3.56V581.6c2.319,3.989,23.641,10.549,14.242,14.241V599.4h-17.8c-8.419-9.515-10.294-1.959-21.362-7.121-2.83-1.32,0-4.572-10.681-7.12,2.014-10.045,5.618-16.912,10.681-24.922l7.121-3.56V542.434h3.56v-17.8h3.56l3.561-10.681H198.32v-3.56h85.448c11.53-22.164,24.343-37.655,24.922-71.2l-21.362-7.121c-0.394-21.1-8.38-20.908-10.681-39.162l-46.284,3.56v3.56l-53.4-3.56H155.6v3.56l-21.362-3.56c-21.85-1.824-43.376,1.921-60.526,3.56v10.681l14.241,3.56v3.56c0.837,0.248,11.091-5.338,17.8,0l-3.56,7.121h10.681v7.12l42.724,3.561q1.779,3.56,3.56,7.12l35.6-3.56v3.56h3.561v-3.56l17.8,3.56,3.561,7.12h10.681v3.561c15.064,5.239,32.157-2.524,42.724,7.12h-3.56v3.56l-10.681,3.561-3.561-7.121h-3.56v3.56c-6.859.038-7.121-3.56-7.121-3.56H230.363v3.56l-10.681-3.56v3.56l-7.121,3.561,10.681,14.241h7.121l-3.561,3.56v3.56H205.44v-7.12c-9.935-.649-24.107-0.886-28.482-7.121H173.4v7.121c-7.023,1.175-2.611-5.511-7.12,0-4.562,2.1-7.621,3.508-10.681,7.12h3.56c5.891,9.979,19.178,15.221,32.043,17.8v7.121H173.4v-7.121c-4.737,1.535-6.078,5.2-14.241,3.561v-3.561H148.475l-3.56,3.561-3.561-7.121c-4.6-2.046-1.851,1.685-3.56,3.56-3.616,2.745-3.505,4.376-7.121,7.121v7.12l35.6,32.042q1.779,3.561,3.56,7.121h7.121l7.12,10.681H191.2l3.56,7.12L209,581.6q1.779,3.561,3.56,7.121h7.121v3.56h7.12v3.56l35.6,3.561v-3.561h3.56V599.4l7.121-3.561V599.4c6.2,2.218,21.98,7.526,32.043,3.56,2.463-.971,1.615-8.291,7.121-7.121V599.4h17.8l3.561-7.121c6.461-2.456,5.213,2.207,7.12,3.56h3.561v-3.56c9.241-1.548,10.681,3.56,10.681,3.56h21.362v-3.56l10.681,3.56c2.764,10.664,2.193,9.365,14.241,10.681,6.776-7.426,19.067-13.4,35.6-10.681V599.4h3.561v-3.561l7.12,3.561c20.477-8.131,50.213-17.938,60.526-35.6-6.119-4.011-4.825-2.252-7.12-10.681-8.264.327-9.148,2.885-14.242,3.561-3.422-1.655-.248-9.156-10.681-7.121-0.791.154-.668,6.475-7.121,7.121q-1.779-3.561-3.56-7.121h-3.56v3.56l-17.8-3.56v-7.12l17.8-3.561q1.779-5.339,3.56-10.68c11.252,0.4,6.672,6.96,10.681-3.56-11.636.407-29.546,2.024-35.6-3.561h60.526v3.561h3.56c6.272-.249,6.235-6.9,7.121-7.121,0,0,9.793,3.389,14.241,3.56v-7.12h14.241v-7.121h14.242v-7.12l21.362-3.56q1.779-5.34,3.56-10.681H586.4q1.779-8.9,3.56-17.8h7.121c2.229-10.948,5.683-12.327,7.12-24.922-18.082-3.011-27.9-9.161-42.724,0l-7.12,10.681c-7.546,3.452-10.024-3.563-14.242-3.561v3.561l-17.8-3.561-7.121,3.561v-3.561c-10.466-1.716-8.178,6.355-10.681,7.121h-3.56v-3.56H486.707v3.56h-3.56v-7.121l-14.242,3.561v-7.121l53.406-10.68v-3.561c-9.652-3.515-23-6.078-28.483-14.241h39.164v3.561h24.922q1.781-5.34,3.56-10.681c-7.775-4.273-11.729-7.847-14.241-17.8,30.212-.448,47.464,9.2,71.207,14.241q1.779-10.68,3.56-21.362c-12.14-.873-30.611-10.216-35.6-17.8l14.241-3.56v-3.561H586.4c3-4.039-.452-0.517,3.56-3.56-0.709-4.985.221-.236-3.56-3.56,1.773-7.007,6.734-5.648,10.681-10.681-7.756-1.5-10.142-2.364-14.242-7.12h10.681v-3.56c-5.039-2.989-8.375-4.957-10.681-10.681H586.4v-3.56h-3.561q-1.779-7.12-3.56-14.241h-7.121c-1.65,8.513-4.124,11.2-7.12,17.8h10.681v3.56c-8.557,3.736-11.435,3.986-14.242,14.241h10.681v3.56c-8.52,2.161-6.616,1.131-10.681,7.121l7.121-3.561v3.561c4.054,4.056,1.418.012,3.56,7.12l-14.241,3.56c3.73,4.634,7.275,5.3,10.681,10.681h-7.121v-3.56H547.233v-3.56c-13.618-4.57-15.827,3.061-24.922-7.121,9.834-2.575,7.964-.993,10.681-10.681-9.3-2.22-10.131-3.774-14.242-10.68l10.681-3.56s0.584,7.621,3.561,3.56v-7.121a35.172,35.172,0,0,1-14.242-14.241l10.681,3.561V307.458c-5.6-4.5-8.64-9.471-10.681-17.8,5.031-.216-0.521.612,3.561,3.56,5.629,4.065,3.314-8.752,3.56-10.681h-3.56q-1.78-10.68-3.561-21.361h-3.56q-1.781,8.9-3.56,17.8h-3.561v7.12h-3.56q1.779,5.34,3.56,10.681h-3.56V303.9h-3.56q-1.781,5.338-3.561,10.68h3.561C505.005,310.524,500.961,313.16,508.069,311.018Zm-348.913,35.6c-2.575,9.835-.994,7.965-10.681,10.681v7.121l17.8,3.56v3.56c-9.786,5.64-6.4,8.8-21.362,10.681v7.12c11.523-1.9,17.453-2.1,24.922-3.56v3.56c5.429,3.116,8.645,3.1,17.8,3.561v-7.121c9.3,0.343,12.2.9,17.8,3.56v-3.56H209c-4.057-4.054-.013-1.418-7.121-3.56-4.149-4.846-6.5-5.441-14.241-7.121,4.914-17.109,4.234-3.428,14.241-10.68v-3.561c-6.743-3.324-17.127-7.909-21.362-14.241l17.8-3.56V339.5a35.172,35.172,0,0,1-14.242-14.241H191.2c4.056,4.054.013,1.418,7.121,3.56-3.115-13.2-11.9-18.378-17.8-28.482H191.2L180.518,268.3h-3.56c-0.246,16.146-4.1,22.584-14.242,28.482v3.56c0.543,0.626,12.1-2.027,7.121,3.561h-3.56c-4.057,8.921-9.717,13.528-14.242,21.361h7.121V321.7h10.681v3.56h-3.56c-4.729,5.747-10.144,7.368-14.242,14.241,8.448,0.717,8.806,1.476,14.242,3.56C162.22,347.114,166.264,344.478,159.156,346.62Zm-46.284-46.283q-1.781,8.9-3.561,17.8l-7.12,3.56q1.779,7.119,3.56,14.241h-3.56v7.12H98.63l-3.56,10.681,10.681-3.56v3.56c-7.033,4.019-8.324,5.044-10.681,14.241h10.681v3.56c-4.486,3.61-11.3,12.618-14.241,17.8h17.8c4.066,3.008,21.6-.314,24.923,3.561v-7.121l-10.681-3.56v-3.56h-7.121V375.1h7.121v-7.12l7.12,3.56v-7.12a35.175,35.175,0,0,1-14.241-14.241h7.121c2.881,4.68,2.507,4.193,7.12,7.12V346.62c-5.765-4.559-12.091-12.924-14.241-21.361h3.56c4.057,4.054.013,1.418,7.121,3.56-2.431-11.765-6.241-13.667-7.121-28.482h-7.12Zm220.741,10.681c-3.536,10.946-3.325,3.4,0,14.241,4.039-3.006.517,0.452,3.56-3.56,4.054-4.056,1.418-.013,3.56-7.121ZM568.6,360.861h10.681v3.561H568.6v-3.561Zm-288.387,17.8V367.982l-10.681-3.56v3.56c-1.483,2.061-5.816.522-3.561,7.12h3.561v3.561h10.681ZM543.673,375.1h17.8v3.561h-17.8V375.1Zm-64.087,7.121c14.029-.425,42.142-3.466,49.845,3.56C515.4,386.208,487.289,389.249,479.586,382.223ZM48.786,392.9c0.845,23.967,10.55,40.53,17.8,56.963v10.681h3.56l3.56,14.241h3.56l3.56,14.241,7.121,3.56v7.121l7.121,3.56v7.121l7.121,3.56v7.12l10.681,7.121v7.12l14.241,10.681q8.9,10.68,17.8,21.361h7.12l7.121,10.681h7.121l7.12,10.681h7.121v3.56h7.121l3.56,7.121h7.121v3.56l21.362,7.12v3.561h10.681v3.56h7.12v3.56l21.363,3.56v3.561l28.482,3.56v-3.56c-24-.958-40.478-10.535-56.965-17.8H219.682v-3.56h-7.121v-3.56H205.44l-3.56-7.121-14.241-3.56-3.561-7.12h-7.12l-3.561-7.121h-7.12l-14.242-17.8-21.362-14.241v-7.121l-21.362-17.8q-1.779-5.34-3.56-10.68L95.07,503.271v-7.12l-7.121-7.121v-7.12h-3.56v-7.121C70.96,452.748,56.478,427.663,55.906,392.9H48.786Zm352.474,21.361v-7.12c-4.985.708-.236-0.222-3.56,3.56-7.007-1.774-5.648-6.734-10.681-10.681v3.56H376.337v3.561h-3.561v3.56h10.681l3.561,7.12Zm-35.6,7.121q-1.781,16.018-3.561,32.042h3.561c5.241,15.135,9.58,25.057,10.681,42.723h7.12l10.681-64.085h-3.56c-2.042,7.155.427,3.08-3.56,7.121C385.263,423.083,380.032,423.824,365.656,421.386Zm17.8,96.126h17.8v3.56H379.9v3.561h3.56v10.68c3.461,7.866,8.572,14.846,10.681,24.922,10.648,4.891,15.6,11.319,28.483,14.241q-8.9-71.2-17.8-142.41h-3.56v7.121H397.7Zm-49.844-14.241-7.121,10.681h17.8v-3.56Zm149.534,21.362c1.753,1.521,4.454,6.6,10.681,3.56v-3.56H483.147ZM294.449,631.44V635H308.69v-3.56H294.449Z" transform="translate(-7.516 -14.5)"/>
</svg>
