<svg xmlns="http://www.w3.org/2000/svg" width="650" height="650" viewBox="0 0 650 650">
  <defs>
    <style>
      .cls-1 {
        stroke: #000;
        stroke-width: 3px;
        fill-rule: evenodd;
      }
    </style>
  </defs>
  <path id="Surfer_1" data-name="Surfer 1" class="cls-1" d="M438.875,55.723v2.038c-2-.382-2.038-1.019-2.038-1.019h-5.1V55.723H429.7V54.7h-6.116V53.685H416.45V52.667h-4.078V51.648h-8.155V50.629h-9.174V49.61h-7.135V48.591h-15.29l-11.213-1.019v1.019H351.211V49.61H345.1v1.019H332.863v1.019H320.631v1.019h-5.1v1.019h-6.116c-22.671,7.12-46.618,13.292-65.239,24.453l-5.1,1.019-1.02,2.038h-2.038v1.019h-2.039v1.019h-2.039l-2.038,2.038H227.87V86.29l-3.058,1.019q-0.51,1.019-1.019,2.038l-4.078,1.019v1.019L216.657,92.4q-0.51,1.019-1.019,2.038H213.6q-0.51,1.019-1.019,2.038h-2.039L208.5,99.536h-2.038q-1.02,1.528-2.039,3.057h-2.039l-3.058,4.076h-2.039q-1.528,2.037-3.058,4.075h-1.019l-1.019,2.038h-2.039q-0.51,1.018-1.019,2.038l-3.058,2.038v1.019h-2.039v1.018a8.3,8.3,0,0,1-4.078,2.038c-1.241,4.141-.665,1.319-3.058,3.057l-1.019,2.038h-2.039q-0.508,1.527-1.019,3.056l-2.039,1.019c-2.309,2.426-6.178,5.688-7.135,9.17h-2.039c-1.023,4.136-3.238,3.552-5.1,6.114v2.037H155.5l-2.039,3.057-2.038,1.019v2.038l-3.058,2.038v2.037L145.3,159.65v2.038l-2.039,1.019v2.038l-3.058,2.037v2.038l-2.039,1.019q-0.51,1.529-1.019,3.057h-1.02v2.037l-2.038,1.019-1.02,4.076-2.038,1.019-1.02,4.075-2.038,1.019v2.038h-1.02v2.038l-2.038,2.038v2.037l-2.039,1.019q-1.02,3.565-2.039,7.133h-1.019v2.037H118.8q-1.02,3.057-2.039,6.114h-1.02q-0.508,2.547-1.019,5.094H113.7v2.038h-1.02v3.057h-1.019v2.037h-1.019l-1.02,6.114h-1.019v2.037h-1.019v4.076h-1.02v3.057h-1.019v3.056h-1.019q-1.02,5.094-2.039,10.189h-1.019l-1.02,9.17H99.432v3.057H98.413q-0.51,8.151-1.019,16.3c-2.1,7.085-2.6,17.655-4.077,25.473H92.3c-1.8-2.081-3.732-2.463-6.116-4.076l-1.019-2.038H83.122L82.1,297.2H80.064v-1.018H78.026l-2.039-3.057H74.968v-4.076c2.612-3.11.613-7.545,2.039-12.226h1.019v-5.095h1.019v-5.094h1.019V259.5h1.019v-3.056H82.1v-3.057h1.019v-6.113h1.019v-3.057h1.019v-3.057H86.18v-3.056H87.2v-3.057h1.019V233.01h1.019v-4.075h1.019V226.9h1.019l1.019-7.132h1.019l1.019-4.076h1.019v-3.057h1.019l1.019-4.075h1.019V205.5h1.019q1.019-3.055,2.039-6.113h1.019v-2.038h1.019v-2.038h1.02v-2.037h1.019v-2.038l2.039-2.038V187.16l2.038-1.019,1.02-4.075,2.038-1.019,1.02-4.076,2.038-1.019v-2.037h1.02v-2.038l3.058-2.038V167.8l2.039-1.019q0.508-2.037,1.019-4.075l3.058-2.038v-2.038l3.058-2.038v-2.037l2.039-1.019V151.5l4.077-3.057v-2.037l5.1-4.076v-2.038h1.019c1.957-2.331,4.16-3.795,5.1-7.132h2.039v-2.038l3.058-2.038,10.193-11.207h2.039l9.174-10.189h2.039q0.508-1.02,1.019-2.038l3.058-1.019L182,100.554h2.039l2.039-3.056,3.058-1.019q0.508-1.019,1.019-2.038h2.039q0.508-1.019,1.019-2.038h2.039V91.384l3.058-1.019,1.019-2.038h2.039l2.039-3.057,4.077-1.019q0.51-1.019,1.019-2.038L212.58,81.2q0.508-1.019,1.019-2.038l4.077-1.019L218.7,76.1h2.038l2.039-2.038h2.039V73.044h2.039V72.025h2.038V71.007h2.039V69.988l6.116-2.038V66.931l5.1-1.019V64.893h2.038V63.874h3.059V62.855l4.077-1.019V60.818l6.116-1.019V58.78h2.039V57.761L276.8,53.685V52.667h2.038V51.648h5.1V50.629h4.078V49.61h4.077V48.591h5.1V47.572h7.135V46.553h3.058V45.534h7.136V44.515h8.154c8.483-2.389,33.33-3.683,42.813-1.019h15.29v1.019h8.155v1.019h8.155v1.019h4.077v1.019h5.1v1.019l12.232,1.019v1.019l8.155,1.019v1.019H429.7C432.538,53.776,434.9,55.3,438.875,55.723ZM306.36,96.479h3.058q0.51,3.056,1.019,6.113l2.039,1.019v6.113H313.5v3.057h1.02V113.8H313.5v7.132h-1.019q0.51,7.641,1.019,15.284h1.02q0.509,2.037,1.019,4.075h1.019v2.038l2.039,1.019v2.038l2.039,1.019v2.037l4.077,3.057v2.038h1.019c2.191,2.606,5.088,4.47,6.117,8.151h2.038l5.1,7.132,4.077,3.057v2.038l2.039,1.018v2.038l2.039,1.019v2.038l2.038,1.019V184.1h1.02v2.038h1.019q1.02,5.094,2.039,10.189h1.019a8.914,8.914,0,0,1,2.039,4.076l3.058,1.019q-1.02-2.547-2.039-5.095h2.039c2.045,3.51,3.176,2.969,6.116,5.095l5.1,6.113h2.039l2.038,3.057,11.213,9.17c-0.86,1.156.129,0.148-1.019,1.019V221.8h-5.1l-1.019,1.019q0.508,2.039,1.019,4.076h-2.039c-2.584,4.528-7.94,7.343-10.193,12.227-2.106,4.563-1.285,11.511-3.058,16.3-2.049-.585-0.882.122-2.039-1.019h-1.019V251.35l-2.039-1.019v-2.037h-1.019v-2.038h-1.02v-2.038l-2.038-2.038v-2.038l-2.039-1.018q-0.51-2.039-1.019-4.076l-2.039-1.019v-2.038h-1.02v-2.037l-2.038-1.019V226.9l-2.039-1.019q-0.51-2.037-1.019-4.076l-2.039-1.018v-2.038h-1.019v-2.038H340l-4.077-13.246-4.077-3.056-5.1-6.114-3.058-2.037v-2.038L321.65,189.2V187.16l-2.039-1.019q-0.509-2.037-1.019-4.075l-2.039-1.019V177.99h-1.019q-0.51-2.037-1.019-4.075H313.5q-1.019-4.585-2.038-9.17h-1.02V159.65h-1.019v-4.075H308.4v-2.038h-1.02v-4.076H306.36v-2.038h-1.02v-3.056h-1.019v-2.038H303.3v-2.038h-1.02a8.593,8.593,0,0,1-2.038-4.075h-2.039c-0.854-3.375-3.192-4.767-5.1-7.133h-1.019q-0.51-2.037-1.019-4.075h-1.02v-4.076h-1.019v-2.038c-0.281-.458-1.423-0.914-2.039-2.037h1.02v-1.019c2.048,0.584.881-.122,2.038,1.019,1.388,1.187,1.558,1.859,2.039,4.075l5.1,1.019a34.6,34.6,0,0,1,2.038-9.17v-1.019h-1.019c-0.9-4.668-.02-11.208,2.039-13.245,1.161-1.16,0-.406,2.038-1.019v11.208h2.039c0.963-1.836,1.412-1.605,2.039-4.076C307.873,102.838,306.567,100.131,306.36,96.479Zm21.406,63.171h-2.039q-0.509-1.529-1.019-3.057h-2.039v1.019c2.749,1.831,3.181,4.42,5.1,7.133l3.058,2.037v2.038l3.058,2.038V172.9l3.058,2.037v2.038L340,179.009v2.038l4.078,3.056-1.02-3.056-2.038-1.019L340,175.952l-2.038-1.019V172.9l-3.058-2.038V168.82l-2.039-1.019q-0.51-1.528-1.019-3.056h-1.02C329.356,162.962,328.5,162.285,327.766,159.65ZM566.294,518.3v2.038l-4.077,3.056v2.038l-2.039,1.019-5.1,6.113h-2.039l-9.174,10.189H541.83l-4.078,5.095h-2.039l-2.038,3.056h-2.039l-2.039,3.057h-2.038l-2.039,3.057h-2.039l-2.038,3.056H519.4l-1.019,2.038-4.078,1.019-2.039,3.057-4.077,1.019q-0.51,1.019-1.019,2.037l-4.078,1.019-1.019,2.038h-2.039v1.019H498v1.019h-2.039l-2.039,2.038h-2.039q-0.509,1.019-1.019,2.037l-9.174,3.057-1.019,2.038h-3.058v1.019l-4.078,1.019v1.019l-6.116,1.018V588.6l-4.077,1.019v1.019L450.088,593.7v1.019h-2.039v1.019l-7.135,1.018v1.019h-3.058v1.019H434.8v1.019H430.72v1.019h-2.038v1.019l-9.174,1.019v1.019h-5.1v1.019h-5.1v1.018L398.1,606.943v1.019l-22.425,1.019V610H342.037v-1.019l-24.464-1.019v-1.019l-10.194-1.019v-1.018h-6.116v-1.019h-4.077v-1.019h-5.1c-9.674-3.118-20.395-6.56-29.561-10.189l-9.174-2.038v-1.019h-2.039V588.6h-2.039v-1.019h-2.038v-1.018h-3.059v-1.019h-2.038v-1.019l-6.116-2.038v-1.019h-3.058v-1.019l-4.078-1.019v-1.019l-4.077-1.019q-0.51-1.018-1.019-2.037h-3.059l-1.019-2.038-4.077-1.019-1.02-2.038-4.077-1.019q-0.51-1.019-1.019-2.037l-4.078-1.019-2.038-3.057-4.078-1.019-1.019-2.038H196.27q-1.018-1.527-2.039-3.056h-2.038l-1.02-2.038h-2.038l-2.039-3.057h-2.039L182,547.848H179.96q-1.529-2.038-3.058-4.076h-2.038c-2.642-1.9-1.7-3.847-6.116-5.094V536.64c-5.5-1.579-8.6-7.578-12.233-11.208l-10.193-9.17v-2.038l-2.039-1.019v-1.019l-6.116-5.094v-2.038L134.09,502V499.96l-3.058-2.038v-2.038l-2.039-1.019v-3.056l-4.077-2.038v-2.038l-2.039-1.019q-0.51-1.529-1.019-3.057h-1.02V481.62L118.8,480.6l-1.02-4.076h-1.019l-1.02-3.056L113.7,472.45l-1.02-4.076-2.038-1.019v-2.038h-1.02V463.28h-1.019v-2.038l-2.039-2.038v-2.038l-2.038-1.019V454.11h-1.02q-0.508-2.039-1.019-4.076h-1.019v-3.057h-1.02V444.94l-2.038-1.019v-3.057H97.393l-1.019-4.076H95.355v-3.056H94.335l-1.019-4.076H92.3l-1.019-6.113H90.258v-2.038H89.238V417.43H88.219v-3.057H87.2v-2.038H86.18V408.26H85.161V405.2H84.142v-4.076H83.122v-5.094H82.1L73.948,351.2h3.058v1.019c1.663,1.392,2.594,3.514,4.077,5.094l2.039,1.019v2.038l6.116,5.094V367.5l5.1,4.075v2.038l4.077,3.057q5.1,16.81,10.194,33.623l3.058,2.038v1.019H113.7v1.019l6.116,1.019,1.019,2.038,6.116,1.018v1.019h2.039v1.019h3.058v1.019l6.116,2.038v1.019h2.039v1.019l4.077,1.019,7.136,9.17,10.193,3.056,1.02,2.038,3.058,1.019,3.058,4.076c2.923,1.865,7.369-.4,11.212,1.018V448H182v1.019h2.039l1.019,2.038H187.1l3.058,4.076h2.039q0.508,1.018,1.019,2.037l3.058,1.019V459.2l6.116,2.038,1.02,2.038h3.058V464.3H208.5v1.018h2.039q0.51,1.02,1.019,2.038H213.6v1.019h2.039v1.019l6.116,1.019v1.019l9.174-2.038q0.51,1.529,1.019,3.057c2.049,0.584.882-.123,2.039,1.019l4.077-1.019,1.02-2.038,20.387,1.019v1.019H271.7l25.484,6.113v1.019h2.038V480.6l7.136,1.019v1.019h3.058v1.018h2.039v1.019h3.058q0.509,1.02,1.019,2.038l4.077,1.019,1.02,2.038h2.038v1.019h2.039q1.02,1.529,2.039,3.056h2.039l2.038,3.057h2.039l2.039,3.057,22.425,9.17c-0.86,1.156.13,0.148-1.019,1.019v1.019l-3.058-1.019V509.13l-7.136-1.019v-1.019l-4.077-1.019v-1.019h-3.058q-0.51-1.018-1.019-2.038H334.9l-1.02-2.037-5.1-1.019v-1.019l-4.078-1.019V496.9l-6.116-1.019q-0.51-1.019-1.019-2.038l-6.116-1.018-1.02-2.038H306.36v-1.019H303.3v-1.019h-3.058v-1.019H286.992c-0.86,1.156.129,0.148-1.019,1.019v3.057a12.761,12.761,0,0,1,6.116,3.056v1.019l3.058,1.019q1.019,3.057,2.039,6.113h1.019c1.869,4.8-1.556,4.236,3.058,7.133v1.019c0.932,0.642,13.89,1.951,16.31,1.018v-1.018c2.785-1.325,3.951-2.277,7.135-3.057,1.1,1.712,9.254,8.5,11.213,9.17h5.1v-1.019c2.967-.77,9.726,1.056,11.213,2.038l2.038,3.056h1.02v2.038h1.019v2.038l2.039,1.019v2.038l2.038,1.019c2.6,2.735,3.1,4.534,8.155,5.094,1.577-3.737,2.8-5.931,8.155-6.113v1.019h2.039l6.116,7.132h2.038v1.019a8.033,8.033,0,0,0,4.078,2.038v-1.019h1.019c2.215-3.666-2.2-5.327,4.078-7.133v-1.019h1.019v1.019H398.1V534.6h3.058v-2.038c5.051,0.5,5.708,2.685,11.213,3.057V534.6h1.02v-3.057h1.019l3.058,4.076h1.019l1.02,5.094,6.116,5.095h8.155c0.935-.372.583-3.051,4.077-2.038v1.019H439.9l2.038,3.057c2.969,1.469,6.267.05,10.194,0,2.155-3.741,11.056-8.625,16.309-9.17l1.02,3.056a29.968,29.968,0,0,1,7.135,1.019v-4.075h1.02v-1.019L487.8,536.64c0.237,0.05.345,1.321,2.039,1.019V536.64h4.077v-1.019h2.039V534.6l10.193,1.019V534.6h2.039l2.039-3.057h1.019q0.51-1.527,1.019-3.056h2.039V527.47l8.155-1.019q0.51-1.018,1.019-2.038h3.058v-1.019l4.078-1.019v-1.019h3.058v-1.018h3.058l1.019-2.038h3.058v-1.019h3.058l1.02-2.038h2.038q1.53-2.037,3.058-4.075h2.039l3.058-4.076,2.039-1.019v-2.038l9.174-8.151v-2.038l5.1-4.075v-2.038l4.077-3.057v-2.037l2.039-1.019V480.6l2.038-1.019,1.02-4.076,3.058-2.037v-2.038l2.039-1.019q0.508-1.529,1.019-3.057H587.7v-2.038l2.039-1.018q0.51-1.529,1.019-3.057h1.02V459.2H592.8v-2.038l2.039-1.019q1.018-3.055,2.038-6.113l2.039-1.019v-2.038l2.039-2.037V442.9h1.019v-2.038h1.02v-2.038h1.019v-2.038h1.019v-2.037h1.02q1.018-3.057,2.038-6.114h1.02q0.509-2.547,1.019-5.094h1.019l1.02-4.076h1.019q1.02-4.584,2.039-9.17h1.019v-3.056h1.019V405.2h1.02q0.51-3.565,1.019-7.132h1.019v-3.057h1.02v-3.057h1.019q1.02-5.6,2.039-11.208h1.019v-6.113h1.02v-4.075h1.019v-4.076h1.019v-7.132h1.02v-7.132h1.019v-7.133h1.019V327.767h1.02c1.434-5.156.023-19.733-1.02-23.434V294.144q-1.019-10.188-2.038-20.378-5.1-21.9-10.194-43.812h-1.019v-2.038h-1.02q-0.508-3.057-1.019-6.114h-1.019v-2.037H614.2q-0.508-3.057-1.019-6.114h-1.019l-1.02-4.075h-1.019v-3.057h-1.019l-1.02-4.075h-1.019v-3.057l-2.039-1.019v-3.057H604.01q-0.51-2.037-1.019-4.075h-1.02q-0.51-2.038-1.019-4.076l-2.039-1.019q-0.51-2.547-1.019-5.094l-2.039-1.019q-0.51-2.037-1.019-4.076l-2.039-1.019q-0.51-2.037-1.019-4.075l-2.039-1.019q-0.51-1.529-1.019-3.057h2.038V167.8c2.083,1.8,2.47,3.723,4.078,6.114l2.038,1.018,1.02,4.076,3.058,2.038q0.51,2.037,1.019,4.075l2.039,1.019q0.51,2.039,1.019,4.076l2.039,2.038v2.037l2.039,1.019v2.038l2.038,2.038v2.038h1.02v2.037h1.019V205.5H614.2v2.038h1.02v2.038h1.019q1.02,3.056,2.039,6.113H619.3v3.057h1.019v2.038h1.02v3.056h1.019v2.038h1.02v3.057H624.4v2.037h1.019q1.528,6.622,3.058,13.246h1.02v2.038h1.019v3.057h1.019l1.02,8.151h1.019q0.51,4.584,1.019,9.17h1.02v3.056h1.019v4.076h1.019V280.9h1.02v6.113h1.019v6.114h1.019v12.227c3,10.768,3.1,30.951,0,41.774v12.227h-1.019V367.5h-1.019v8.151h-1.02v7.132h-1.019v5.1H635.61v3.056h-1.02q-0.509,4.586-1.019,9.17h-1.019v3.057h-1.02v5.095h-1.019V410.3h-1.019l-1.02,7.133h-1.019v2.037h-1.019q-1.02,4.586-2.039,9.17h-1.019v2.038h-1.02v3.057h-1.019l-1.02,4.075H619.3v3.057h-1.019l-1.02,4.076h-1.019V448h-1.019l-2.039,6.114h-1.019v2.037h-1.02q-1.018,3.057-2.038,6.114l-2.039,1.019q-0.51,2.037-1.019,4.075l-2.039,1.019q-0.51,2.038-1.019,4.076l-2.039,1.019-1.02,4.075h-1.019q-0.51,1.529-1.019,3.057l-2.039,1.019q-0.51,2.037-1.019,4.075l-3.058,2.038v2.038l-2.039,1.019v2.038l-3.058,2.037V496.9L582.6,499.96V502l-5.1,4.075v2.038l-6.116,5.094v2.038l-3.058,2.038V518.3h-2.039ZM428.682,260.52h-3.058q0.509,3.566,1.019,7.133c6.858,3.473,12.7,7.55,16.31,14.264-8.065-.2-11.247.735-16.31,3.057v1.019H429.7v-1.019h8.155v1.019H439.9v1.018l4.077,1.019,1.019,2.038h2.039q0.51,1.019,1.019,2.038l3.058,1.019v1.019a8.6,8.6,0,0,0,4.078,2.038v-2.038c5.63,0.022,6.585,1.583,10.193,3.056l5.1,1.019v1.019h2.039v1.019h2.038v1.019h2.039l1.02,2.038h2.038l1.02,2.038h2.038v1.018l4.078,3.057v-2.038h-1.02v-3.056a45.408,45.408,0,0,1,20.387,5.094v1.019h2.039v1.019h3.058v1.019h2.039V313.5h2.038v1.019l4.078,1.018v1.019l9.174,1.019V318.6l4.077,1.019v1.019l4.078,1.019q0.51,1.019,1.019,2.038h2.039l2.039,3.056h2.038l3.058,4.076h2.039q0.51,1.018,1.019,2.038L561.2,343.051q1.02,1.527,2.039,3.056h2.039v2.038a22.928,22.928,0,0,1,7.135,4.076q0.51,1.018,1.019,2.037h2.039q0.51,1.02,1.019,2.038l16.31,7.132h5.1v1.019h2.038v1.019l7.136,1.019c2.273,0.83,4.278,2.4,7.135,3.057q-0.508,1.527-1.019,3.056l-15.29-3.056v1.019c1.327,0.674,1.383,1.6,2.038,2.037h2.039l1.02,2.038h2.038v1.019c3.151,1.883,5.089,2.084,6.116,6.113-8.779-.069-10.647-5.316-17.329-7.132,1.809,8.348,10.567,11.042,11.213,19.359-4.215-.8-9.213-5.218-10.193-9.17-3.574-1-3.98-2.855-6.116-5.094H587.7v1.018h-1.019q2.548,9.679,5.1,19.359l-3.058,1.019-1.02-4.075h-1.019q-0.51-3.057-1.019-6.114h-1.02q-0.51-2.037-1.019-4.075H582.6v-3.057h-1.02v-2.038h-1.019c-0.674-1.234-.951-4.51-2.039-5.094h-4.077c0.144,4.307.069,8.153-2.039,10.189-1.161,1.16,0,.406-2.039,1.019q-0.508-3.057-1.019-6.114h-1.019c-1.679-5.634.862-9.919-2.039-14.264l-3.058-2.038-6.116-7.132-4.078-1.019q-0.509-1.018-1.019-2.038l-4.077-1.019v-1.019l-4.078-1.018V351.2H540.81v-1.019h-2.038v-1.019l-8.155-1.019v-1.019h-3.058v-1.019H524.5v-1.019h-4.078v-1.019l-4.077-1.018v-1.019h-3.058v-1.019h-2.039q-0.51-1.018-1.019-2.038l-4.078-1.019v-1.019h-2.038v-1.019H480.669v1.019h-3.058v1.019h-4.078v1.019H454.166c-2.935-.929-5-2.633-9.175-3.057l-8.154,7.133-4.078,5.094H430.72l-3.058,4.076h-2.038l-1.02,2.037h-2.038l-2.039,3.057-4.077,1.019v1.019h-2.039v1.019h-2.039v1.019h-2.039v1.018H408.3v1.019h-3.058l-1.02,2.038c-2.129,1.083-6.046,1.215-8.154,2.038l-4.078,9.17v3.057h-1.019v2.037h-1.02q-0.509,3.057-1.019,6.114h-1.019l-1.02,4.075h-1.019v3.057l-2.039,1.019q-0.508,3.055-1.019,6.113h-1.019l-1.02,4.076h-1.019v3.056h-1.019v2.038h-1.02q-0.508,3.057-1.019,6.114h-1.019l-1.02,4.075h-1.019v3.057h-1.019v3.056H371.6v3.057h-1.019v3.057h-1.02v2.038H368.54v3.056h-1.019V442.9H366.5c-0.991,2.738-1.169,7.857,1.02,9.17h3.058c2.658-7.03,5.2-10.416,15.29-10.189V442.9h2.039l2.038,3.057,10.194-1.019c0.858,2.274,1.049,5.54,1.019,9.17,5.5-.261,6.64-1.935,13.252-2.038,1.529,4.786-.494,6.9,6.116,7.132,4.506-3.695,9.732,1.835,10.193-8.151l-3.058-2.038V448H424.6v-1.019h-2.038v-1.018h-3.058V444.94L408.3,443.921l-9.174-8.151v-4.076c4.059-.856,4.457-3.051,8.154-4.076v-3.056h-1.019c-2.921-3.47-7.667-4.168-14.271-4.076-1.168-4.374-3.356-2.979-4.077-8.151,3.012,1.1,2.1,1.038,5.1,0l4.077-8.151-4.077-3.057v-1.019h-7.136V399.09h2.039c1.447-2.2,2.411-2.049,6.116-2.038a8.443,8.443,0,0,0,5.1,3.056c0.536,2.757,2.61,4.968,3.058,7.133q-1.02,3.056-2.039,6.113h1.019c3,4.023,3.321.108,7.136,2.038l4.077,5.094h1.02v2.038l2.038,1.019v4.075h-1.019q0.51,3.057,1.019,6.114l-2.038,1.019c-0.43,2.013.514,1.3,1.019,2.037,2.669,2.307,8.2-.19,12.232,1.019,2.54,0.761,5.264,2.446,8.155,3.057,2.7,4.743,6.411,7.163,7.135,14.265h-1.019v3.056l-5.1,4.076,1.02,3.056c-0.123.306-1.4,0.193-2.039,3.057l9.174,2.038v1.019l3.058,1.019c0.017,5-1.169,5.8-2.039,9.17l9.175,3.056q0.508,1.02,1.019,2.038h2.039l3.058,4.076h2.038l1.02,2.038,5.1,4.075v2.038h1.02l-1.02,7.132a22.608,22.608,0,0,1,3.058,3.057h-4.077L462.32,502h-2.038l-3.058-4.076H456.2v-4.076c-5.511-1-4.921-.082-10.193,1.019q0.508,2.547,1.019,5.095h1.019V502h1.02l-1.02,4.075H447.03v9.17c4,1.981,5.1,2.138,5.1,8.151,6.448,1.273,15.713,1.5,21.406-1.019v-1.019l4.078-1.018v-1.019a8.633,8.633,0,0,1,4.077-2.038c0.737-2.815.284-2.279,3.058-3.057-2.612,12.532-18.616,15.984-30.58,19.359l-15.291-1.019c-1.414-2.532-4.068-4.182-5.1-7.132v-6.113l-5.1-3.057c-2.662-4.891,3.85-2.38-1.02-6.113-1.161-1.16,0-.406-2.038-1.019v-3.057c2.792,0.657,2.32,1.334,5.1,2.038v-1.019c2.314-1.31,2.688-1.659,3.059-5.094-1.442-.818-4.8-3.715-6.117-4.076l-4.077,1.019v-1.019l-3.058-1.019v1.019c-2.593,2.221-3.214,6.248-6.116,8.151l2.039,3.057h-9.175c-1.161-1.16,0-.406-2.038-1.019-1.712-2.893-3.518-2.77-4.078-7.132h1.02c1.176,2.317,2.965,4.525,5.1,3.056h1.02v-3.056h1.019q-1.019-3.057-2.039-6.114l-3.058-1.019q-1.529-2.037-3.058-4.075h-6.116q-0.51-1.019-1.019-2.038c-3.937-3.477-4.446-3.98-10.194-3.057a35.292,35.292,0,0,0-1.019,7.133l5.1,6.113h1.019v3.057c-4.539-.818-6.371-3.055-10.193-4.076v-3.057h2.038c-1.666-4.321-2.972-7.277-3.058-13.245l6.116-1.019,1.02-2.038h2.038v-1.019c1.856-.408,3.931,1.345,5.1,2.038v1.019c3.388,1.451,8.987-.609,11.213-1.019a10.791,10.791,0,0,0,1.019-4.076c-2.185-1.182-4.945-2.913-6.116-5.094v-2.038h-1.019v-6.113h-1.019l-2.039-3.057h-4.078c-1.205-.823-1.555-6.834-2.038-8.151-0.963-.409-3.273-0.615-4.078-1.019V448l-4.077-2.037v1.018c-2.361,1.419-2.86,3.64-5.1,5.1,1.417,2.6,2.631,3.162,3.058,7.132-1.156.86-.148-0.129-1.019,1.019-6.941-.057-9.475,1.811-14.271,3.057-1.011,4.041-2.724,3.7-3.058,9.17-4.921-.575-3-1.915-7.135-3.057-0.585,2.49-1.068,2.247-2.039,4.076l-5.1-3.057v1.019c-1.466,1.452-2.6,5.688-3.058,8.151l-6.116-1.019c-1.436-2.632-4.133-5.206-5.1-8.151-1.494-4.569.122-19.206,1.02-22.416V428.637h1.019v-5.094h1.019l1.02-27.51h1.019V388.9c0.2-.71,2.219-7.236,2.039-8.152h-1.02q-0.508-2.547-1.019-5.094l-2.039-1.019V372.6l-5.1-4.075v-2.038l-12.233-11.208h-4.077v-2.038a12.948,12.948,0,0,0-5.1-1.018c1.08-4.954,7-9.867,10.194-13.246l2.038-1.019v-2.038l3.058-2.038v-3.056h1.02q0.51-2.039,1.019-4.076h1.019c2.345-5.854,1.972-13.389,2.039-21.4l-7.135-6.114-7.136,1.019,1.02-3.057,6.116-1.018V297.2c8.679,2.88,14.786,6.443,20.387,12.227,2.7,2.786,2.854,6.824,7.135,8.151-0.821-3.8-1.786-8.489,1.019-11.208,1.081,1.957,5.253,7.039,7.136,8.152V303.314h2.039q0.509-10.7,1.019-21.4h1.019v-2.038h1.02q0.509-3.566,1.019-7.132l5.1-8.151h1.019c0.365,2.083,1.82,5.955,3.058,7.132v-1.019h1.02v-3.056H371.6V259.5h-1.019v-2.037l-2.039-1.019v-2.038h-1.019q0.51-7.641,1.019-15.283c2.33-1.493,3.2-4.206,5.1-6.114,3.975-4.006,8.329-5.9,11.213-11.208,2.275,0.858,5.543,1.049,9.174,1.019q-0.51-2.037-1.019-4.075c8.692-1.021,14.289-1.24,20.387,3.056l4.077,5.095h4.077v1.019c3.225,1.673,5.124,2.218,6.116,6.113h1.02c1.551,2.811-1.474,5.127-1.02,7.132h1.02q0.51,2.547,1.019,5.095h1.019C432.478,251.908,429.186,256.206,428.682,260.52ZM29.1,277.841v2.038h1.019l1.019,3.057,4.077,3.057v2.037l10.194,9.17v2.038l7.136,6.114v2.037l8.155,7.133v2.037l9.174,8.151v2.038l7.136,6.114V334.9l5.1,4.076,8.155,9.17H92.3v1.019c1.513,1.4,1.325.524,2.039,3.057,3.439,1,1.95,1.235,4.077,3.056V356.3h2.038v2.038h2.039v2.038c2.983,0.7,3.338,1.134,4.077,4.075,5.728,1.556,3.71,5.578,9.174,7.132v2.038h2.039v2.038c3.929,1.019,4.726,3.708,7.136,6.113q6.624,6.114,13.251,12.227l2.039,3.057h2.039l8.154,9.17h2.039l6.116,7.132h2.039l6.116,7.132h2.039l3.058,4.076h2.038q1.53,2.037,3.058,4.075h2.039L182,432.713h2.039l3.058,4.075,3.058,1.019q0.51,1.02,1.019,2.038h2.039l2.039,3.057h2.038l1.02,2.038h2.038l1.02,2.037L204.425,448l2.039,3.057c4.083,2.863,5.642.012,6.116,7.132a7.415,7.415,0,0,1-4.078-2.038v-1.018h-2.038V454.11c-1.5-1.384-1.393-.5-2.039-3.057-2.652-.659-3.326-1.614-5.1-3.057v-1.019h-2.039q-0.508-1.018-1.019-2.037h-2.039l-2.038-3.057h-3.058l-1.02-2.038h-2.038v-1.019h-3.058v-1.019H179.96v-1.019H169.767V435.77h-2.039l-3.058-4.076-4.077-1.019v-1.019h-3.058v-1.019h-3.058v-1.019h-3.058V426.6h-3.058l-1.02-2.038H145.3l-2.039-3.057h-2.039l-9.174-10.189h-1.019v-2.038h-2.039c-0.7-2.981-1.135-3.336-4.077-4.075v-2.038h-2.039v-2.038l-9.174-8.151v-2.038l-7.136-6.113v-2.038l-2.038-1.019v-1.019l-3.058-2.037v-2.038l-6.117-5.095v-2.037H94.335L92.3,366.485l-3.058-2.038v-2.038L87.2,361.391v-1.019l-2.039-1.019v-2.038l-5.1-4.076V351.2l-4.077-3.057v-2.038l-2.039-1.019-1.019-3.056-4.077-3.057v-2.038l-4.077-3.057v-2.037l-2.039-1.019-1.019-3.057-5.1-4.075v-2.038L52.542,318.6v-2.038l-3.058-2.037v-2.038l-4.077-3.057v-2.038l-4.077-3.056V302.3l-2.039-1.019-1.019-3.057H37.252v-2.037l-3.058-2.038v-2.038l-2.039-1.019v-2.038L29.1,287.011v-2.037l-2.039-1.019A15.839,15.839,0,0,1,24,274.785a15.981,15.981,0,0,1,6.116-1.019c2.1,2.264,4.235,1.687,7.135,3.057v1.018H40.31v1.019h3.058v1.019l4.077,1.019v1.019H50.5l1.019,2.038,5.1,1.019,1.019,2.037h2.039v1.019h2.039v1.019h2.039l2.039,2.038h2.039l1.019,2.038,4.077,1.019,1.019,2.038,4.077,1.018,1.019,2.038h2.039v1.019h2.039l2.039,3.057H87.2l1.019,2.038h2.039v1.018l3.058,1.019,1.019,2.038h2.039l3.058,4.076,4.077,1.019v1.018l3.058,1.019,1.02,2.038h2.038l2.039,3.057H113.7l1.019,2.038h2.039l1.019,2.037,3.058,1.019,2.039,3.057h2.039l1.019,2.038h2.039v1.019l3.058,1.018q0.508,1.02,1.019,2.038h2.039l2.038,3.057h2.039l2.039,3.057h2.039l2.038,3.056h2.039q0.51,1.018,1.019,2.038h2.039l2.039,3.057h2.038q1.53,2.037,3.058,4.075h2.039l2.039,3.057h2.039l2.038,3.057h2.039l3.058,4.075h2.039l3.058,4.076H176.9l1.02,2.038,5.1,3.056v2.038H182c-1.092-1.266-1.8-1.071-3.058-2.038V372.6H176.9l-2.038-3.056-4.078-1.019-2.038-3.057h-2.039q-0.51-1.019-1.019-2.038h-2.039q-1.02-1.527-2.039-3.056h-2.039v-1.019l-3.058-1.019q-0.508-1.019-1.019-2.038h-2.039l-2.038-3.057H149.38q-0.51-1.018-1.019-2.037h-2.039l-2.039-3.057h-2.038v-1.019l-3.059-1.019q-0.508-1.019-1.019-2.038h-2.039l-2.038-3.056h-2.039l-1.019-2.038h-2.039l-2.039-3.057h-2.038l-1.02-2.038h-2.038v-1.018l-3.058-1.019-1.02-2.038h-2.039l-2.038-3.057h-2.039q-0.51-1.018-1.019-2.038h-2.039q-0.51-1.018-1.019-2.037h-2.039v-1.019l-3.058-1.019q-0.51-1.018-1.019-2.038H99.432l-3.058-4.075L92.3,313.5l-1.019-2.038H88.219v-1.019l-3.058-1.019-1.019-2.038-4.077-1.019-2.039-3.056-6.116-2.038-1.019-2.038H68.851L67.832,297.2l-4.077-1.018-1.019-2.038-4.077-1.019-1.019-2.038H55.6v-1.019H53.561l-1.019-2.038-4.077-1.019-1.019-2.037-4.077-1.019C38.6,281.383,36.29,278.315,29.1,277.841Zm234.45,160.985v-2.038c-2.652-.656-3.327-1.614-5.1-3.056v-1.019h-2.038l-1.02-2.038h-2.038l-1.02-2.038h-1.019q-0.51-1.018-1.019-2.037h-2.039l-3.058-4.076H243.16l-3.058-4.076c-2.781-2.021-4.071-1.151-5.1-5.094,9.32-.044,10.918,3.7,16.31,7.132l4.077,1.019v1.019l3.058,1.019,1.02,2.038h2.038l1.02,2.037a20.512,20.512,0,0,0,7.135,3.057,61.764,61.764,0,0,1,1.02-12.227c2.55-1.1,6.434-3.046,8.154-5.094,9.5-.213,13.091,2.388,19.368,5.094v-3.056c-1.161-1.161-.406,0-1.019-2.038l2.038-1.019v-1.019h5.1V410.3c1.554-.887,2.474-0.892,5.1-1.019,1.807,2,2.245.848,4.077,2.038l1.02,2.038h2.038l4.078,5.094c3.14,1.958,2.61-1.822,4.077,3.057,3.139-.807,3.441-1.919,4.078-5.094l3.058-1.019V426.6c-2.02,2.233-1.11,16.755-1.02,21.4h-2.038c-0.393-5.39-2.1-10.716-3.059-15.283l-9.174-3.057c0.274-5.029.8-5.682,0-10.189-3.939-2.3-3.44-3.939-10.193-4.075-2.283,3.924-3.1,3.2-3.058,10.189h-1.02c-0.743,1.652,2.408,6.207,3.058,7.132h1.02v2.038h1.019v4.075H306.36l-4.078-5.094h-2.038l-1.02-2.038h-1.019c-2.33-3.363,1.324-4.492-4.077-6.113-1.625-1.513-6.007-1.113-9.175-1.019v5.094c-3.134-.638-3.529-1.626-7.135-2.038a12.939,12.939,0,0,0-1.019,5.1c3.126,1.322,4.649,1.884,5.1,6.113h-3.058c0.455,4.506,1.921,5.645,2.039,11.208h-1.019c-2.548-2.365-11.11-2.129-16.31-2.038q-0.51,3.057-1.019,6.114l-4.078,1.019c0.642,4.691,2.576,4.631,5.1,7.132v1.019h-1.019c-1.738,1.709-4.228,2-7.136,1.019V463.28h-6.116v-1.019c-2.57-.788-5.227,1.073-6.116,1.019v-1.019H240.1v-1.019h-2.039l-2.038-3.057c-2.856-1.9-5.284-1.191-7.136-4.075h4.078c1.885,2.081,1.026-.112,3.058,1.019q0.508,1.018,1.019,2.037c4.872,2.571,12.791,3.158,16.31-1.019l-5.1-4.075v-1.019h-4.078v-1.019h-3.058v-1.019h-4.077V448l-4.077-1.019v-1.018h-3.058V444.94l-4.078-1.019V442.9l-4.077-1.019-1.02-2.038H218.7v-1.019h-2.039l-2.039-2.038H212.58V435.77l-3.058-1.019-1.02-2.038-4.077-1.019-1.019-2.038h-2.039q-1.02-1.529-2.039-3.056h-2.039q-0.508-1.02-1.019-2.038h-2.039l-3.058-4.076h-2.038L187.1,417.43h-2.039l-7.135-8.152h-2.039l-5.1-6.113h-1.019v-2.038h1.019c1.219,1.425,3.3,2.249,5.1,3.057-2.894-4.931-6.9-6.217-7.135-14.264,2.861-1.631,5.055-4.718,8.154-6.114l13.252-3.057v-1.018l4.077-1.019v-1.019h2.039q0.51-1.018,1.019-2.038h2.039l2.039-3.057h2.039l2.038-3.056h2.039v-1.019l3.058-1.019v1.019h1.019l-6.116,11.208H208.5v-1.019l5.1-1.019q0.51-1.018,1.019-2.038h2.039l3.058-4.076h2.039l1.019-2.037,4.078-1.019q0.508-1.019,1.019-2.038l4.077-1.019v-1.019l3.058-1.019,1.02-2.037,4.077-1.019,1.019-2.038,4.078-1.019,2.039-3.057h2.038l1.02-2.037h2.038V351.2l3.058-1.019,1.02-2.038h2.038l2.039-3.057h2.039l3.058-4.075h2.039l2.038-3.057H271.7l3.058-4.076,4.077-3.056v-1.019h2.039l3.058-4.076h2.039l1.019-2.037,7.136-1.019v-1.019l6.116,1.019c1.364,2.57,2.028,3.571,2.038,8.151-1.16,1.161-.406,0-1.019,2.038h3.058c1.6-2.491,1.124-.621,3.058-2.038l2.039-3.057,3.058-1.019c4.438-5.543,7.1-13.566,10.193-20.378,1.157,0.861.149-.129,1.02,1.019,1.946,1.655,2.04,3.409,2.038,7.133h-1.019q-0.51,2.547-1.019,5.094h-1.02v3.057H321.65q-1.018,3.055-2.039,6.113h-1.019v2.038l-2.039,1.019v2.037l-5.1,4.076-1.02,2.038H308.4l-2.039,3.057h-2.039l-1.019,2.037h-2.039v1.019l-4.077,1.019v1.019l-6.116,1.019v1.019h-2.039V351.2h-4.078v1.019l-9.174,1.018v1.019l-9.174,1.019V356.3h-2.039v1.019l-7.135,1.019v1.019l-5.1,1.019v1.019l-4.077,1.018v1.019H245.2l-1.02,2.038h-2.038v1.019h-3.058l-2.039,3.057h-3.058q-0.51,1.019-1.019,2.037l-4.078,1.019-2.038,3.057h-2.039l-1.019,2.038-5.1,4.075v2.038l-2.039,1.019v2.038l-2.039,1.019v2.038l-2.038,1.018v2.038h-1.02l-2.038,3.057-5.1,1.019v-1.019h-1.019v1.019l-5.1,1.019v1.019H196.27q-0.51,1.527-1.019,3.056l-2.039,1.019c-3.123,4.8.44,5.807-8.155,6.113V408.26H182l-1.019-2.038L176.9,405.2v1.019h2.039c2.727,4.417,7.914,5.282,12.232,8.151l1.02,2.038,3.058,1.019v1.018l4.077,1.019,1.019,2.038h2.039v1.019h2.039l2.039,2.038H208.5l1.02,2.038,4.077,1.018q0.51,1.02,1.019,2.038h3.058l1.02,2.038,5.1,1.019v1.019l4.077,1.019v1.019l6.116,1.018v1.019h2.039v1.019H240.1v1.019c1.662,0.626,13.646,3.6,15.29,3.057v-1.019h2.039q0.51-1.018,1.019-2.038ZM536.733,329.805c4.392,1.155,3.511,3.217,6.116,5.094h2.039q0.508,1.02,1.019,2.038h1.019l1.02,2.038h2.038v1.019c1.78,1.468,2.462,2.323,5.1,3.057v2.037c3.881,0.963,6.04,4.284,9.174,6.114-1.559-2.84-4.636-6.235-8.155-7.133v-2.037c-3.34-.944-4.8-3.137-7.135-5.095v-1.019l-3.058-1.019q-1.02-1.527-2.039-3.056H541.83v-1.019l-4.078-2.038v-1.019h-1.019v2.038ZM374.656,370.561V372.6c8.7,0.916,6.711,10.981,6.116,18.34h2.039c0.63-7.787,5.185-12.446,6.116-20.377H374.656ZM199.328,381.768l-14.271,4.076c-1.236,2.168-2.3,2.218-3.058,5.094h1.02c1.394,1.283,7.506,1.961,10.193,2.038C195.617,388.9,198.7,388.128,199.328,381.768Zm16.31,17.322c3.752,0.3,4.88,1.411,7.135,3.056v1.019h3.058l2.039,3.057c3.874,2.7,5.925,1.274,7.135,7.132h-1.019C229.157,407.93,219.433,405.6,215.638,399.09ZM113.7,422.524l4.077,11.208h1.02v2.038h1.019q0.51,2.037,1.019,4.075h1.02v2.038h1.019v2.038H123.9v2.038h1.02V448h1.019v2.038l2.039,2.038v2.038l2.038,1.019,1.02,4.075,2.038,1.019,1.02,4.076,3.058,2.037q0.51,2.038,1.019,4.076l2.039,1.019v2.038h1.019v2.037h1.02q0.508,1.529,1.019,3.057H145.3V480.6l4.077,3.056V485.7l3.058,2.038v2.038l5.1,4.075v2.038l10.193,9.17v2.038l2.039,1.019,4.077,5.094h1.02q0.508,1.02,1.019,2.038h2.039l8.155,9.17h2.038l4.078,5.1h2.038q1.53,2.037,3.058,4.075h2.039l2.039,3.057h2.039l1.019,2.038h2.039l2.038,3.056h2.039q0.51,1.019,1.019,2.038H213.6l1.019,2.038,3.058,1.019v1.019l4.078,1.019,1.019,2.037,4.078,1.019q0.508,1.018,1.019,2.038h2.039L231.947,556h2.039v1.019h2.039v1.019h2.038l1.02,2.037,9.174,3.057v1.019H250.3v1.019h2.038v1.019h2.039v1.019h3.058v1.018h2.039v1.019h3.058v1.019h2.038v1.019l8.155,2.038V572.3c-1.664-1.394-2.566-3.544-4.077-5.094l-3.058-2.038v-2.038l-3.058-2.038-1.02-4.075L259.47,556l-2.039-6.114h-1.019v-2.037h-1.02q-0.508-3.057-1.019-6.114h-1.019V536.64h-1.02c-1.168-4,.081-9.256-1.019-12.227h-2.039c-0.578,1.1-1.825,1.668-2.038,2.038v2.038h-1.02v1.019h1.02l-1.02,4.075a9.929,9.929,0,0,1-4.077-1.019c-2.26-4.989-4.061-7.335-4.078-15.283-4.958.219-3.45,1.089-7.135,2.038L215.638,502H213.6l-2.039-2.038h-2.038v-1.019h-2.039q-0.51-1.018-1.019-2.038h-2.039v-1.019h-2.039l-4.077-5.094H196.27l-2.039-3.057-9.174-3.057V485.7h1.02c1.888,2.174,4.711,2.361,7.135,4.076l11.213,13.245h2.039v1.019H208.5v1.019h4.078v1.019h3.058v1.019c4.262,3.442,1.838,5.629,4.077,10.189v2.038l9.174,6.113v2.038l2.039,1.019v2.037l3.058,2.038V534.6l7.135,6.113v2.038l3.058,2.038v2.038l2.039,1.019v2.037h1.02v2.038l2.038,1.019v5.1c0.018,0.056.624-.11,1.02,2.037h-1.02c-0.86-1.156.13-.148-1.019-1.019-2.972-7.289-6.253-9.333-11.213-14.264l-3.058-4.076h-2.039l-4.077-5.094h-2.039l-1.019-2.038h-2.039l-1.019-2.038h-2.039l-1.019-2.037h-2.039v-1.019a8.1,8.1,0,0,0-4.077-2.038v-2.038a7.994,7.994,0,0,1-4.078-2.038v-1.019h-2.038l-1.02-2.037h-2.038l-1.02-2.038h-2.039l-2.038-3.057H196.27l-6.116-7.132h-2.039l-2.038-3.057h-1.02c-2.379-2.43-3.031-5.29-6.116-7.132v2.038c1.729,1.475,3.959,5.125,5.1,7.132v2.038l2.039,1.019q0.508,2.037,1.019,4.075c1.474,2.724,3.694,5.175,5.1,8.151h-3.058v-2.037H187.1V518.3l-8.155-7.132V509.13l-5.1-4.076v-2.038L171.806,502l-1.02-3.057h-1.019V496.9l-2.039-1.019q-0.508-2.037-1.019-4.075l-2.039-1.019v-3.057h-1.019V485.7l-2.039-1.019V481.62h-1.019l-1.02-4.076h-1.019q-0.51-3.055-1.019-6.113h-1.02q-0.508-2.547-1.019-5.095h-1.019l-1.02-4.075h-1.019V459.2l-2.039-1.019v-2.038c-4.915-7.129-13.238-13.232-19.367-19.359C126.628,432.386,120.38,424.272,113.7,422.524ZM464.359,561.093a18.584,18.584,0,0,0-1.019-7.132c-7.7,2.759-16.328,4.9-23.445,8.151v1.019h4.077v-1.019h5.1a83.405,83.405,0,0,1,10.193-3.057c-0.7,2.537-.525,1.657-2.038,3.057v1.019h-2.039l-2.039,3.057-6.116,2.037v1.019h-3.058v1.019h-2.039v1.019h-3.058V572.3h-5.1v1.019h-6.117v1.019H416.45v1.019h-6.117c-6.942-1.89-15.386-2-24.464-2.038v2.038c6.582,0.611,9.882,5.635,16.31,7.132v2.038l-19.368-3.057v-1.019h-2.039v-1.019h-3.058v-1.019h-3.058V577.4l-4.077-1.018v-1.019h-3.058v-1.019l-6.116-2.038v-1.019h-2.039v-1.019l-4.077-1.019-1.02-2.037h-2.038l-1.02-2.038h-2.039V564.15l-3.058-1.019-1.019-2.038h-2.039v-1.019l-4.077-3.056v2.037c2.76,1.82,3.161,4.444,5.1,7.133l3.058,2.037c3.906,3.974,6.784,8.759,13.251,10.189v2.038l-5.1-1.019v-1.019h-4.078V577.4h-2.039v-1.018l-4.077-1.019v-1.019h-2.039V573.32h-2.038V572.3h-2.039l-2.039-2.038H334.9l-1.02-2.038h-2.038l-1.02-2.037h-2.038q-1.53-2.038-3.059-4.076h-2.038l-1.02-2.038-5.1-4.075v-2.038c-0.775-1.047-3.088-1.805-4.078-3.057h-2.038v1.019c2.557,2.341.693,2.653,2.038,5.1l2.039,1.019v2.037l2.039,1.019c3.024,3.209,5.186,6.9,10.193,8.151l1.02,3.057h-2.039c-2.314-2.482-2.118-.814-5.1-2.038v-1.019h-3.058v-1.019h-3.058v-1.018H313.5v-1.019l-6.116-1.019V564.15l-6.116-1.019v-1.019h-2.039v-1.019l-6.116-1.019c-5.2-2.3-9.011-6.708-15.29-8.151v3.057h1.019c0.861,3.331,3.168,4.829,5.1,7.132h1.019v2.038l3.059,2.038c3.563,3.623,6.2,6.877,11.212,9.17-0.86,1.156.13,0.148-1.019,1.019V577.4l-11.213-4.075V572.3l-3.058-1.019-1.019-2.038h-2.039c-1.152-.818-7.075-8.7-8.155-8.151v1.019H271.7c2.158,5.339,4.144,12.747,10.193,14.265V577.4l7.136,1.019v1.019h3.058v1.019l10.193,1.019v1.019h5.1v1.019h5.1v1.019h8.155c27.756,7.949,76.991,4.955,101.935-3.057h5.1v-1.019l10.194-2.038V577.4h4.077v-1.018h2.039v-1.019l6.116-1.019V573.32L456.2,572.3v-1.019h2.039v-1.019H461.3v-1.019h3.058v-1.019H466.4v-1.018h3.058v-1.019l6.116-2.038v-1.019h2.039v-1.019l4.077-1.019q1.019-1.529,2.039-3.056L489.843,556q0.508-1.018,1.019-2.038c3.614-2.4,6.888-2.306,8.155-7.132l-23.445,8.151-1.02,2.038h-2.038l-1.02,2.037C469.539,560.667,467.809,560.832,464.359,561.093Z" transform="translate(-8.5 -1.016)"/>
</svg>
